<?xml version="1.0" encoding="UTF-8" standalone="no"?>
<!DOCTYPE svg PUBLIC "-//W3C//DTD SVG 1.1//EN"
 "http://www.w3.org/Graphics/SVG/1.1/DTD/svg11.dtd">
<!-- Generated by graphviz version 7.0.0 (0)
 -->
<!-- Pages: 1 -->
<svg width="127pt" height="122pt"
 viewBox="0.00 0.00 127.00 122.00" xmlns="http://www.w3.org/2000/svg" xmlns:xlink="http://www.w3.org/1999/xlink">
<g id="graph0" class="graph" transform="scale(1 1) rotate(0) translate(4 118)">
<g id="clust1" class="cluster">
<title>cluster_tx_1</title>
<path fill="#d0d0d0" stroke="#666666" stroke-width="0.5" d="M20,-8C20,-8 99,-8 99,-8 105,-8 111,-14 111,-20 111,-20 111,-94 111,-94 111,-100 105,-106 99,-106 99,-106 20,-106 20,-106 14,-106 8,-100 8,-94 8,-94 8,-20 8,-20 8,-14 14,-8 20,-8"/>
</g>
<g id="clust2" class="cluster">
<title>cluster_tx_2_inputs</title>
</g>
<g id="clust3" class="cluster">
<title>cluster_tx_2_outputs</title>
</g>
<!-- input_2_1 -->
<g id="node1" class="node">
<title>input_2_1</title>
<path fill="#ffffff" stroke="none" stroke-width="2" d="M39.5,-99C39.5,-99 27.5,-99 27.5,-99 24.5,-99 21.5,-96 21.5,-93 21.5,-93 21.5,-87 21.5,-87 21.5,-84 24.5,-81 27.5,-81 27.5,-81 39.5,-81 39.5,-81 42.5,-81 45.5,-84 45.5,-87 45.5,-87 45.5,-93 45.5,-93 45.5,-96 42.5,-99 39.5,-99"/>
<text text-anchor="middle" x="33.5" y="-87.2" font-family="Helvetica,sans-Serif" font-size="11.00" fill="#000000">1.1</text>
</g>
<!-- output_2_1 -->
<g id="node4" class="node">
<title>output_2_1</title>
<path fill="#ffffff" stroke="#333333" stroke-width="2" d="M88,-99C88,-99 76,-99 76,-99 73,-99 70,-96 70,-93 70,-93 70,-87 70,-87 70,-84 73,-81 76,-81 76,-81 88,-81 88,-81 91,-81 94,-84 94,-87 94,-87 94,-93 94,-93 94,-96 91,-99 88,-99"/>
<text text-anchor="middle" x="82" y="-87.2" font-family="Helvetica,sans-Serif" font-size="11.00" fill="#000000">1.0</text>
</g>
<!-- input_2_1&#45;&gt;output_2_1 -->
<!-- input_2_2 -->
<g id="node2" class="node">
<title>input_2_2</title>
<path fill="#ffffff" stroke="none" stroke-width="2" d="M46,-77C46,-77 21,-77 21,-77 18,-77 15,-74 15,-71 15,-71 15,-65 15,-65 15,-62 18,-59 21,-59 21,-59 46,-59 46,-59 49,-59 52,-62 52,-65 52,-65 52,-71 52,-71 52,-74 49,-77 46,-77"/>
<text text-anchor="middle" x="33.5" y="-65.2" font-family="Helvetica,sans-Serif" font-size="11.00" fill="#000000">0.999</text>
</g>
<!-- input_2_3 -->
<g id="node3" class="node">
<title>input_2_3</title>
<path fill="#ffffff" stroke="none" stroke-width="2" d="M46,-55C46,-55 21,-55 21,-55 18,-55 15,-52 15,-49 15,-49 15,-43 15,-43 15,-40 18,-37 21,-37 21,-37 46,-37 46,-37 49,-37 52,-40 52,-43 52,-43 52,-49 52,-49 52,-52 49,-55 46,-55"/>
<text text-anchor="middle" x="33.5" y="-43.2" font-family="Helvetica,sans-Serif" font-size="11.00" fill="#000000">0.002</text>
</g>
<!-- output_2_2 -->
<g id="node5" class="node">
<title>output_2_2</title>
<path fill="#ffffff" stroke="#333333" stroke-width="2" d="M88,-77C88,-77 76,-77 76,-77 73,-77 70,-74 70,-71 70,-71 70,-65 70,-65 70,-62 73,-59 76,-59 76,-59 88,-59 88,-59 91,-59 94,-62 94,-65 94,-65 94,-71 94,-71 94,-74 91,-77 88,-77"/>
<text text-anchor="middle" x="82" y="-65.2" font-family="Helvetica,sans-Serif" font-size="11.00" fill="#000000">1.0</text>
</g>
<!-- output_2_3 -->
<g id="node6" class="node">
<title>output_2_3</title>
<path fill="#ffffff" stroke="#333333" stroke-width="2" d="M98,-55C98,-55 66,-55 66,-55 63,-55 60,-52 60,-49 60,-49 60,-43 60,-43 60,-40 63,-37 66,-37 66,-37 98,-37 98,-37 101,-37 104,-40 104,-43 104,-43 104,-49 104,-49 104,-52 101,-55 98,-55"/>
<text text-anchor="middle" x="82" y="-43.2" font-family="Helvetica,sans-Serif" font-size="11.00" fill="#000000">0.0999</text>
</g>
<!-- output_2_4 -->
<g id="node7" class="node">
<title>output_2_4</title>
<path fill="#ffffff" stroke="#333333" stroke-width="2" d="M98,-33C98,-33 66,-33 66,-33 63,-33 60,-30 60,-27 60,-27 60,-21 60,-21 60,-18 63,-15 66,-15 66,-15 98,-15 98,-15 101,-15 104,-18 104,-21 104,-21 104,-27 104,-27 104,-30 101,-33 98,-33"/>
<text text-anchor="middle" x="82" y="-21.2" font-family="Helvetica,sans-Serif" font-size="11.00" fill="#000000">0.0009</text>
</g>
</g>
</svg>
