<?xml version="1.0" encoding="UTF-8" standalone="no"?>
<!DOCTYPE svg PUBLIC "-//W3C//DTD SVG 1.1//EN"
 "http://www.w3.org/Graphics/SVG/1.1/DTD/svg11.dtd">
<!-- Generated by graphviz version 7.0.0 (0)
 -->
<!-- Pages: 1 -->
<svg width="134pt" height="78pt"
 viewBox="0.00 0.00 134.00 78.00" xmlns="http://www.w3.org/2000/svg" xmlns:xlink="http://www.w3.org/1999/xlink">
<g id="graph0" class="graph" transform="scale(1 1) rotate(0) translate(4 74)">
<g id="clust1" class="cluster">
<title>cluster_tx_1</title>
<path fill="#d0d0d0" stroke="#666666" stroke-width="0.5" d="M20,-8C20,-8 106,-8 106,-8 112,-8 118,-14 118,-20 118,-20 118,-50 118,-50 118,-56 112,-62 106,-62 106,-62 20,-62 20,-62 14,-62 8,-56 8,-50 8,-50 8,-20 8,-20 8,-14 14,-8 20,-8"/>
</g>
<g id="clust2" class="cluster">
<title>cluster_tx_2_inputs</title>
</g>
<g id="clust3" class="cluster">
<title>cluster_tx_2_outputs</title>
</g>
<!-- input_2_1 -->
<g id="node1" class="node">
<title>input_2_1</title>
<path fill="#ffffff" stroke="none" stroke-width="2" d="M43,-55C43,-55 31,-55 31,-55 28,-55 25,-52 25,-49 25,-49 25,-43 25,-43 25,-40 28,-37 31,-37 31,-37 43,-37 43,-37 46,-37 49,-40 49,-43 49,-43 49,-49 49,-49 49,-52 46,-55 43,-55"/>
<text text-anchor="middle" x="37" y="-43.2" font-family="Helvetica,sans-Serif" font-size="11.00" fill="#000000">1.1</text>
</g>
<!-- output_2_1 -->
<g id="node3" class="node">
<title>output_2_1</title>
<path fill="#ffffff" stroke="#333333" stroke-width="2" d="M95,-55C95,-55 83,-55 83,-55 80,-55 77,-52 77,-49 77,-49 77,-43 77,-43 77,-40 80,-37 83,-37 83,-37 95,-37 95,-37 98,-37 101,-40 101,-43 101,-43 101,-49 101,-49 101,-52 98,-55 95,-55"/>
<text text-anchor="middle" x="89" y="-43.2" font-family="Helvetica,sans-Serif" font-size="11.00" fill="#000000">1.5</text>
</g>
<!-- input_2_1&#45;&gt;output_2_1 -->
<!-- input_2_2 -->
<g id="node2" class="node">
<title>input_2_2</title>
<path fill="#ffffff" stroke="none" stroke-width="2" d="M53,-33C53,-33 21,-33 21,-33 18,-33 15,-30 15,-27 15,-27 15,-21 15,-21 15,-18 18,-15 21,-15 21,-15 53,-15 53,-15 56,-15 59,-18 59,-21 59,-21 59,-27 59,-27 59,-30 56,-33 53,-33"/>
<text text-anchor="middle" x="37" y="-21.2" font-family="Helvetica,sans-Serif" font-size="11.00" fill="#000000">0.7999</text>
</g>
<!-- output_2_2 -->
<g id="node4" class="node">
<title>output_2_2</title>
<path fill="#ffffff" stroke="#333333" stroke-width="2" d="M105,-33C105,-33 73,-33 73,-33 70,-33 67,-30 67,-27 67,-27 67,-21 67,-21 67,-18 70,-15 73,-15 73,-15 105,-15 105,-15 108,-15 111,-18 111,-21 111,-21 111,-27 111,-27 111,-30 108,-33 105,-33"/>
<text text-anchor="middle" x="89" y="-21.2" font-family="Helvetica,sans-Serif" font-size="11.00" fill="#000000">0.3998</text>
</g>
</g>
</svg>
