<?xml version="1.0" encoding="UTF-8" standalone="no"?>
<!DOCTYPE svg PUBLIC "-//W3C//DTD SVG 1.1//EN"
 "http://www.w3.org/Graphics/SVG/1.1/DTD/svg11.dtd">
<!-- Generated by graphviz version 7.0.0 (0)
 -->
<!-- Pages: 1 -->
<svg width="229pt" height="140pt"
 viewBox="0.00 0.00 229.00 140.00" xmlns="http://www.w3.org/2000/svg" xmlns:xlink="http://www.w3.org/1999/xlink">
<g id="graph0" class="graph" transform="scale(1 1) rotate(0) translate(4 136)">
<g id="clust1" class="cluster">
<title>cluster_tx_1</title>
<path fill="#d0d0d0" stroke="#666666" stroke-width="0.5" d="M20,-70C20,-70 92,-70 92,-70 98,-70 104,-76 104,-82 104,-82 104,-112 104,-112 104,-118 98,-124 92,-124 92,-124 20,-124 20,-124 14,-124 8,-118 8,-112 8,-112 8,-82 8,-82 8,-76 14,-70 20,-70"/>
</g>
<g id="clust2" class="cluster">
<title>cluster_tx_1_inputs</title>
</g>
<g id="clust3" class="cluster">
<title>cluster_tx_1_outputs</title>
</g>
<g id="clust4" class="cluster">
<title>cluster_tx_2</title>
<path fill="#d0d0d0" stroke="#666666" stroke-width="0.5" d="M20,-8C20,-8 92,-8 92,-8 98,-8 104,-14 104,-20 104,-20 104,-50 104,-50 104,-56 98,-62 92,-62 92,-62 20,-62 20,-62 14,-62 8,-56 8,-50 8,-50 8,-20 8,-20 8,-14 14,-8 20,-8"/>
</g>
<g id="clust5" class="cluster">
<title>cluster_tx_2_inputs</title>
</g>
<g id="clust6" class="cluster">
<title>cluster_tx_2_outputs</title>
</g>
<g id="clust7" class="cluster">
<title>cluster_tx_3</title>
<path fill="#d0d0d0" stroke="#666666" stroke-width="0.5" d="M142,-70C142,-70 201,-70 201,-70 207,-70 213,-76 213,-82 213,-82 213,-112 213,-112 213,-118 207,-124 201,-124 201,-124 142,-124 142,-124 136,-124 130,-118 130,-112 130,-112 130,-82 130,-82 130,-76 136,-70 142,-70"/>
</g>
<g id="clust8" class="cluster">
<title>cluster_tx_3_inputs</title>
</g>
<g id="clust9" class="cluster">
<title>cluster_tx_3_outputs</title>
</g>
<g id="clust10" class="cluster">
<title>cluster_tx_4</title>
<path fill="#d0d0d0" stroke="#666666" stroke-width="0.5" d="M142,-8C142,-8 201,-8 201,-8 207,-8 213,-14 213,-20 213,-20 213,-50 213,-50 213,-56 207,-62 201,-62 201,-62 142,-62 142,-62 136,-62 130,-56 130,-50 130,-50 130,-20 130,-20 130,-14 136,-8 142,-8"/>
</g>
<g id="clust11" class="cluster">
<title>cluster_tx_4_inputs</title>
</g>
<g id="clust12" class="cluster">
<title>cluster_tx_4_outputs</title>
</g>
<!-- input_1_1 -->
<g id="node1" class="node">
<title>input_1_1</title>
<path fill="#ffffff" stroke="none" stroke-width="2" d="M46,-117C46,-117 21,-117 21,-117 18,-117 15,-114 15,-111 15,-111 15,-105 15,-105 15,-102 18,-99 21,-99 21,-99 46,-99 46,-99 49,-99 52,-102 52,-105 52,-105 52,-111 52,-111 52,-114 49,-117 46,-117"/>
<text text-anchor="middle" x="33.5" y="-105.2" font-family="Helvetica,sans-Serif" font-size="11.00" fill="#000000">1.002</text>
</g>
<!-- output_1_1 -->
<g id="node3" class="node">
<title>output_1_1</title>
<path fill="#ffffff" stroke="none" stroke-width="2" d="M91,-117C91,-117 66,-117 66,-117 63,-117 60,-114 60,-111 60,-111 60,-105 60,-105 60,-102 63,-99 66,-99 66,-99 91,-99 91,-99 94,-99 97,-102 97,-105 97,-105 97,-111 97,-111 97,-114 94,-117 91,-117"/>
<text text-anchor="middle" x="78.5" y="-105.2" font-family="Helvetica,sans-Serif" font-size="11.00" fill="#000000">1.001</text>
</g>
<!-- input_1_1&#45;&gt;output_1_1 -->
<!-- input_1_2 -->
<g id="node2" class="node">
<title>input_1_2</title>
<path fill="#ffffff" stroke="none" stroke-width="2" d="M46,-95C46,-95 21,-95 21,-95 18,-95 15,-92 15,-89 15,-89 15,-83 15,-83 15,-80 18,-77 21,-77 21,-77 46,-77 46,-77 49,-77 52,-80 52,-83 52,-83 52,-89 52,-89 52,-92 49,-95 46,-95"/>
<text text-anchor="middle" x="33.5" y="-83.2" font-family="Helvetica,sans-Serif" font-size="11.00" fill="#000000">1.002</text>
</g>
<!-- input_3_1 -->
<g id="node9" class="node">
<title>input_3_1</title>
<path fill="#ffffff" stroke="none" stroke-width="2" d="M168,-117C168,-117 143,-117 143,-117 140,-117 137,-114 137,-111 137,-111 137,-105 137,-105 137,-102 140,-99 143,-99 143,-99 168,-99 168,-99 171,-99 174,-102 174,-105 174,-105 174,-111 174,-111 174,-114 171,-117 168,-117"/>
<text text-anchor="middle" x="155.5" y="-105.2" font-family="Helvetica,sans-Serif" font-size="11.00" fill="#000000">1.001</text>
</g>
<!-- output_1_1&#45;&gt;input_3_1 -->
<g id="edge5" class="edge">
<title>output_1_1&#45;&gt;input_3_1</title>
<path fill="none" stroke="#909090" d="M97.66,-108C107.35,-108 119.42,-108 129.94,-108"/>
<polygon fill="#909090" stroke="#909090" points="129.74,-109.75 134.74,-108 129.74,-106.25 129.74,-109.75"/>
</g>
<!-- output_1_2 -->
<g id="node4" class="node">
<title>output_1_2</title>
<path fill="#ffffff" stroke="none" stroke-width="2" d="M91,-95C91,-95 66,-95 66,-95 63,-95 60,-92 60,-89 60,-89 60,-83 60,-83 60,-80 63,-77 66,-77 66,-77 91,-77 91,-77 94,-77 97,-80 97,-83 97,-83 97,-89 97,-89 97,-92 94,-95 91,-95"/>
<text text-anchor="middle" x="78.5" y="-83.2" font-family="Helvetica,sans-Serif" font-size="11.00" fill="#000000">1.001</text>
</g>
<!-- input_4_1 -->
<g id="node13" class="node">
<title>input_4_1</title>
<path fill="#ffffff" stroke="none" stroke-width="2" d="M168,-55C168,-55 143,-55 143,-55 140,-55 137,-52 137,-49 137,-49 137,-43 137,-43 137,-40 140,-37 143,-37 143,-37 168,-37 168,-37 171,-37 174,-40 174,-43 174,-43 174,-49 174,-49 174,-52 171,-55 168,-55"/>
<text text-anchor="middle" x="155.5" y="-43.2" font-family="Helvetica,sans-Serif" font-size="11.00" fill="#000000">1.001</text>
</g>
<!-- output_1_2&#45;&gt;input_4_1 -->
<g id="edge6" class="edge">
<title>output_1_2&#45;&gt;input_4_1</title>
<path fill="none" stroke="#909090" d="M97.66,-76.32C107.53,-71.05 119.87,-64.47 130.53,-58.78"/>
<polygon fill="#909090" stroke="#909090" points="131.33,-60.34 134.92,-56.44 129.68,-57.25 131.33,-60.34"/>
</g>
<!-- input_2_1 -->
<g id="node5" class="node">
<title>input_2_1</title>
<path fill="#ffffff" stroke="none" stroke-width="2" d="M46,-55C46,-55 21,-55 21,-55 18,-55 15,-52 15,-49 15,-49 15,-43 15,-43 15,-40 18,-37 21,-37 21,-37 46,-37 46,-37 49,-37 52,-40 52,-43 52,-43 52,-49 52,-49 52,-52 49,-55 46,-55"/>
<text text-anchor="middle" x="33.5" y="-43.2" font-family="Helvetica,sans-Serif" font-size="11.00" fill="#000000">1.002</text>
</g>
<!-- output_2_1 -->
<g id="node7" class="node">
<title>output_2_1</title>
<path fill="#ffffff" stroke="none" stroke-width="2" d="M91,-55C91,-55 66,-55 66,-55 63,-55 60,-52 60,-49 60,-49 60,-43 60,-43 60,-40 63,-37 66,-37 66,-37 91,-37 91,-37 94,-37 97,-40 97,-43 97,-43 97,-49 97,-49 97,-52 94,-55 91,-55"/>
<text text-anchor="middle" x="78.5" y="-43.2" font-family="Helvetica,sans-Serif" font-size="11.00" fill="#000000">1.001</text>
</g>
<!-- input_2_1&#45;&gt;output_2_1 -->
<!-- input_2_2 -->
<g id="node6" class="node">
<title>input_2_2</title>
<path fill="#ffffff" stroke="none" stroke-width="2" d="M46,-33C46,-33 21,-33 21,-33 18,-33 15,-30 15,-27 15,-27 15,-21 15,-21 15,-18 18,-15 21,-15 21,-15 46,-15 46,-15 49,-15 52,-18 52,-21 52,-21 52,-27 52,-27 52,-30 49,-33 46,-33"/>
<text text-anchor="middle" x="33.5" y="-21.2" font-family="Helvetica,sans-Serif" font-size="11.00" fill="#000000">1.002</text>
</g>
<!-- input_3_2 -->
<g id="node10" class="node">
<title>input_3_2</title>
<path fill="#ffffff" stroke="none" stroke-width="2" d="M168,-95C168,-95 143,-95 143,-95 140,-95 137,-92 137,-89 137,-89 137,-83 137,-83 137,-80 140,-77 143,-77 143,-77 168,-77 168,-77 171,-77 174,-80 174,-83 174,-83 174,-89 174,-89 174,-92 171,-95 168,-95"/>
<text text-anchor="middle" x="155.5" y="-83.2" font-family="Helvetica,sans-Serif" font-size="11.00" fill="#000000">1.001</text>
</g>
<!-- output_2_1&#45;&gt;input_3_2 -->
<g id="edge7" class="edge">
<title>output_2_1&#45;&gt;input_3_2</title>
<path fill="none" stroke="#909090" d="M97.66,-55.68C107.53,-60.95 119.87,-67.53 130.53,-73.22"/>
<polygon fill="#909090" stroke="#909090" points="129.68,-74.75 134.92,-75.56 131.33,-71.66 129.68,-74.75"/>
</g>
<!-- output_2_2 -->
<g id="node8" class="node">
<title>output_2_2</title>
<path fill="#ffffff" stroke="none" stroke-width="2" d="M91,-33C91,-33 66,-33 66,-33 63,-33 60,-30 60,-27 60,-27 60,-21 60,-21 60,-18 63,-15 66,-15 66,-15 91,-15 91,-15 94,-15 97,-18 97,-21 97,-21 97,-27 97,-27 97,-30 94,-33 91,-33"/>
<text text-anchor="middle" x="78.5" y="-21.2" font-family="Helvetica,sans-Serif" font-size="11.00" fill="#000000">1.001</text>
</g>
<!-- input_4_2 -->
<g id="node14" class="node">
<title>input_4_2</title>
<path fill="#ffffff" stroke="none" stroke-width="2" d="M168,-33C168,-33 143,-33 143,-33 140,-33 137,-30 137,-27 137,-27 137,-21 137,-21 137,-18 140,-15 143,-15 143,-15 168,-15 168,-15 171,-15 174,-18 174,-21 174,-21 174,-27 174,-27 174,-30 171,-33 168,-33"/>
<text text-anchor="middle" x="155.5" y="-21.2" font-family="Helvetica,sans-Serif" font-size="11.00" fill="#000000">1.001</text>
</g>
<!-- output_2_2&#45;&gt;input_4_2 -->
<g id="edge8" class="edge">
<title>output_2_2&#45;&gt;input_4_2</title>
<path fill="none" stroke="#909090" d="M97.66,-24C107.35,-24 119.42,-24 129.94,-24"/>
<polygon fill="#909090" stroke="#909090" points="129.74,-25.75 134.74,-24 129.74,-22.25 129.74,-25.75"/>
</g>
<!-- output_3_1 -->
<g id="node11" class="node">
<title>output_3_1</title>
<path fill="#ffffff" stroke="#333333" stroke-width="2" d="M200,-117C200,-117 188,-117 188,-117 185,-117 182,-114 182,-111 182,-111 182,-105 182,-105 182,-102 185,-99 188,-99 188,-99 200,-99 200,-99 203,-99 206,-102 206,-105 206,-105 206,-111 206,-111 206,-114 203,-117 200,-117"/>
<text text-anchor="middle" x="194" y="-105.2" font-family="Helvetica,sans-Serif" font-size="11.00" fill="#000000">1.0</text>
</g>
<!-- input_3_1&#45;&gt;output_3_1 -->
<!-- output_3_2 -->
<g id="node12" class="node">
<title>output_3_2</title>
<path fill="#ffffff" stroke="#333333" stroke-width="2" d="M200,-95C200,-95 188,-95 188,-95 185,-95 182,-92 182,-89 182,-89 182,-83 182,-83 182,-80 185,-77 188,-77 188,-77 200,-77 200,-77 203,-77 206,-80 206,-83 206,-83 206,-89 206,-89 206,-92 203,-95 200,-95"/>
<text text-anchor="middle" x="194" y="-83.2" font-family="Helvetica,sans-Serif" font-size="11.00" fill="#000000">1.0</text>
</g>
<!-- output_4_1 -->
<g id="node15" class="node">
<title>output_4_1</title>
<path fill="#ffffff" stroke="#333333" stroke-width="2" d="M200,-55C200,-55 188,-55 188,-55 185,-55 182,-52 182,-49 182,-49 182,-43 182,-43 182,-40 185,-37 188,-37 188,-37 200,-37 200,-37 203,-37 206,-40 206,-43 206,-43 206,-49 206,-49 206,-52 203,-55 200,-55"/>
<text text-anchor="middle" x="194" y="-43.2" font-family="Helvetica,sans-Serif" font-size="11.00" fill="#000000">1.0</text>
</g>
<!-- input_4_1&#45;&gt;output_4_1 -->
<!-- output_4_2 -->
<g id="node16" class="node">
<title>output_4_2</title>
<path fill="#ffffff" stroke="#333333" stroke-width="2" d="M200,-33C200,-33 188,-33 188,-33 185,-33 182,-30 182,-27 182,-27 182,-21 182,-21 182,-18 185,-15 188,-15 188,-15 200,-15 200,-15 203,-15 206,-18 206,-21 206,-21 206,-27 206,-27 206,-30 203,-33 200,-33"/>
<text text-anchor="middle" x="194" y="-21.2" font-family="Helvetica,sans-Serif" font-size="11.00" fill="#000000">1.0</text>
</g>
</g>
</svg>
