<?xml version="1.0" encoding="UTF-8" standalone="no"?>
<!DOCTYPE svg PUBLIC "-//W3C//DTD SVG 1.1//EN"
 "http://www.w3.org/Graphics/SVG/1.1/DTD/svg11.dtd">
<!-- Generated by graphviz version 7.0.0 (0)
 -->
<!-- Pages: 1 -->
<svg width="190pt" height="140pt"
 viewBox="0.00 0.00 190.00 140.00" xmlns="http://www.w3.org/2000/svg" xmlns:xlink="http://www.w3.org/1999/xlink">
<g id="graph0" class="graph" transform="scale(1 1) rotate(0) translate(4 136)">
<g id="clust1" class="cluster">
<title>cluster_tx_1</title>
<path fill="#d0d0d0" stroke="#666666" stroke-width="0.5" d="M20,-70C20,-70 66,-70 66,-70 72,-70 78,-76 78,-82 78,-82 78,-112 78,-112 78,-118 72,-124 66,-124 66,-124 20,-124 20,-124 14,-124 8,-118 8,-112 8,-112 8,-82 8,-82 8,-76 14,-70 20,-70"/>
</g>
<g id="clust2" class="cluster">
<title>cluster_tx_1_inputs</title>
</g>
<g id="clust3" class="cluster">
<title>cluster_tx_1_outputs</title>
</g>
<g id="clust4" class="cluster">
<title>cluster_tx_2</title>
<path fill="#d0d0d0" stroke="#666666" stroke-width="0.5" d="M20,-8C20,-8 66,-8 66,-8 72,-8 78,-14 78,-20 78,-20 78,-50 78,-50 78,-56 72,-62 66,-62 66,-62 20,-62 20,-62 14,-62 8,-56 8,-50 8,-50 8,-20 8,-20 8,-14 14,-8 20,-8"/>
</g>
<g id="clust5" class="cluster">
<title>cluster_tx_2_inputs</title>
</g>
<g id="clust6" class="cluster">
<title>cluster_tx_2_outputs</title>
</g>
<g id="clust7" class="cluster">
<title>cluster_tx_3</title>
<path fill="#d0d0d0" stroke="#666666" stroke-width="0.5" d="M116,-70C116,-70 162,-70 162,-70 168,-70 174,-76 174,-82 174,-82 174,-112 174,-112 174,-118 168,-124 162,-124 162,-124 116,-124 116,-124 110,-124 104,-118 104,-112 104,-112 104,-82 104,-82 104,-76 110,-70 116,-70"/>
</g>
<g id="clust8" class="cluster">
<title>cluster_tx_3_inputs</title>
</g>
<g id="clust9" class="cluster">
<title>cluster_tx_3_outputs</title>
</g>
<g id="clust10" class="cluster">
<title>cluster_tx_4</title>
<path fill="#d0d0d0" stroke="#666666" stroke-width="0.5" d="M116,-8C116,-8 162,-8 162,-8 168,-8 174,-14 174,-20 174,-20 174,-50 174,-50 174,-56 168,-62 162,-62 162,-62 116,-62 116,-62 110,-62 104,-56 104,-50 104,-50 104,-20 104,-20 104,-14 110,-8 116,-8"/>
</g>
<g id="clust11" class="cluster">
<title>cluster_tx_4_inputs</title>
</g>
<g id="clust12" class="cluster">
<title>cluster_tx_4_outputs</title>
</g>
<!-- input_1_1 -->
<g id="node1" class="node">
<title>input_1_1</title>
<path fill="#ffffff" stroke="none" stroke-width="2" d="M33,-117C33,-117 21,-117 21,-117 18,-117 15,-114 15,-111 15,-111 15,-105 15,-105 15,-102 18,-99 21,-99 21,-99 33,-99 33,-99 36,-99 39,-102 39,-105 39,-105 39,-111 39,-111 39,-114 36,-117 33,-117"/>
<text text-anchor="middle" x="27" y="-105.2" font-family="Helvetica,sans-Serif" font-size="11.00" fill="#000000">1.0</text>
</g>
<!-- output_1_1 -->
<g id="node3" class="node">
<title>output_1_1</title>
<path fill="#ffffff" stroke="none" stroke-width="2" d="M65,-117C65,-117 53,-117 53,-117 50,-117 47,-114 47,-111 47,-111 47,-105 47,-105 47,-102 50,-99 53,-99 53,-99 65,-99 65,-99 68,-99 71,-102 71,-105 71,-105 71,-111 71,-111 71,-114 68,-117 65,-117"/>
<text text-anchor="middle" x="59" y="-105.2" font-family="Helvetica,sans-Serif" font-size="11.00" fill="#000000">1.0</text>
</g>
<!-- input_1_1&#45;&gt;output_1_1 -->
<!-- input_1_2 -->
<g id="node2" class="node">
<title>input_1_2</title>
<path fill="#ffffff" stroke="none" stroke-width="2" d="M33,-95C33,-95 21,-95 21,-95 18,-95 15,-92 15,-89 15,-89 15,-83 15,-83 15,-80 18,-77 21,-77 21,-77 33,-77 33,-77 36,-77 39,-80 39,-83 39,-83 39,-89 39,-89 39,-92 36,-95 33,-95"/>
<text text-anchor="middle" x="27" y="-83.2" font-family="Helvetica,sans-Serif" font-size="11.00" fill="#000000">1.0</text>
</g>
<!-- input_3_1 -->
<g id="node9" class="node">
<title>input_3_1</title>
<path fill="#ffffff" stroke="none" stroke-width="2" d="M129,-117C129,-117 117,-117 117,-117 114,-117 111,-114 111,-111 111,-111 111,-105 111,-105 111,-102 114,-99 117,-99 117,-99 129,-99 129,-99 132,-99 135,-102 135,-105 135,-105 135,-111 135,-111 135,-114 132,-117 129,-117"/>
<text text-anchor="middle" x="123" y="-105.2" font-family="Helvetica,sans-Serif" font-size="11.00" fill="#000000">1.0</text>
</g>
<!-- output_1_1&#45;&gt;input_3_1 -->
<g id="edge5" class="edge">
<title>output_1_1&#45;&gt;input_3_1</title>
<path fill="none" stroke="#909090" d="M71.95,-108C80.96,-108 93.47,-108 103.73,-108"/>
<polygon fill="#909090" stroke="#909090" points="103.57,-109.75 108.57,-108 103.57,-106.25 103.57,-109.75"/>
</g>
<!-- output_1_2 -->
<g id="node4" class="node">
<title>output_1_2</title>
<path fill="#ffffff" stroke="none" stroke-width="2" d="M65,-95C65,-95 53,-95 53,-95 50,-95 47,-92 47,-89 47,-89 47,-83 47,-83 47,-80 50,-77 53,-77 53,-77 65,-77 65,-77 68,-77 71,-80 71,-83 71,-83 71,-89 71,-89 71,-92 68,-95 65,-95"/>
<text text-anchor="middle" x="59" y="-83.2" font-family="Helvetica,sans-Serif" font-size="11.00" fill="#000000">1.0</text>
</g>
<!-- input_4_1 -->
<g id="node13" class="node">
<title>input_4_1</title>
<path fill="#ffffff" stroke="none" stroke-width="2" d="M129,-55C129,-55 117,-55 117,-55 114,-55 111,-52 111,-49 111,-49 111,-43 111,-43 111,-40 114,-37 117,-37 117,-37 129,-37 129,-37 132,-37 135,-40 135,-43 135,-43 135,-49 135,-49 135,-52 132,-55 129,-55"/>
<text text-anchor="middle" x="123" y="-43.2" font-family="Helvetica,sans-Serif" font-size="11.00" fill="#000000">1.0</text>
</g>
<!-- output_1_2&#45;&gt;input_4_1 -->
<g id="edge6" class="edge">
<title>output_1_2&#45;&gt;input_4_1</title>
<path fill="none" stroke="#909090" d="M71.95,-78.29C81.3,-72.26 94.43,-63.79 104.89,-57.04"/>
<polygon fill="#909090" stroke="#909090" points="105.56,-58.69 108.81,-54.51 103.66,-55.75 105.56,-58.69"/>
</g>
<!-- input_2_1 -->
<g id="node5" class="node">
<title>input_2_1</title>
<path fill="#ffffff" stroke="none" stroke-width="2" d="M33,-55C33,-55 21,-55 21,-55 18,-55 15,-52 15,-49 15,-49 15,-43 15,-43 15,-40 18,-37 21,-37 21,-37 33,-37 33,-37 36,-37 39,-40 39,-43 39,-43 39,-49 39,-49 39,-52 36,-55 33,-55"/>
<text text-anchor="middle" x="27" y="-43.2" font-family="Helvetica,sans-Serif" font-size="11.00" fill="#000000">1.0</text>
</g>
<!-- output_2_1 -->
<g id="node7" class="node">
<title>output_2_1</title>
<path fill="#ffffff" stroke="none" stroke-width="2" d="M65,-55C65,-55 53,-55 53,-55 50,-55 47,-52 47,-49 47,-49 47,-43 47,-43 47,-40 50,-37 53,-37 53,-37 65,-37 65,-37 68,-37 71,-40 71,-43 71,-43 71,-49 71,-49 71,-52 68,-55 65,-55"/>
<text text-anchor="middle" x="59" y="-43.2" font-family="Helvetica,sans-Serif" font-size="11.00" fill="#000000">1.0</text>
</g>
<!-- input_2_1&#45;&gt;output_2_1 -->
<!-- input_2_2 -->
<g id="node6" class="node">
<title>input_2_2</title>
<path fill="#ffffff" stroke="none" stroke-width="2" d="M33,-33C33,-33 21,-33 21,-33 18,-33 15,-30 15,-27 15,-27 15,-21 15,-21 15,-18 18,-15 21,-15 21,-15 33,-15 33,-15 36,-15 39,-18 39,-21 39,-21 39,-27 39,-27 39,-30 36,-33 33,-33"/>
<text text-anchor="middle" x="27" y="-21.2" font-family="Helvetica,sans-Serif" font-size="11.00" fill="#000000">1.0</text>
</g>
<!-- input_3_2 -->
<g id="node10" class="node">
<title>input_3_2</title>
<path fill="#ffffff" stroke="none" stroke-width="2" d="M129,-95C129,-95 117,-95 117,-95 114,-95 111,-92 111,-89 111,-89 111,-83 111,-83 111,-80 114,-77 117,-77 117,-77 129,-77 129,-77 132,-77 135,-80 135,-83 135,-83 135,-89 135,-89 135,-92 132,-95 129,-95"/>
<text text-anchor="middle" x="123" y="-83.2" font-family="Helvetica,sans-Serif" font-size="11.00" fill="#000000">1.0</text>
</g>
<!-- output_2_1&#45;&gt;input_3_2 -->
<g id="edge7" class="edge">
<title>output_2_1&#45;&gt;input_3_2</title>
<path fill="none" stroke="#909090" d="M71.95,-53.71C81.3,-59.74 94.43,-68.21 104.89,-74.96"/>
<polygon fill="#909090" stroke="#909090" points="103.66,-76.25 108.81,-77.49 105.56,-73.31 103.66,-76.25"/>
</g>
<!-- output_2_2 -->
<g id="node8" class="node">
<title>output_2_2</title>
<path fill="#ffffff" stroke="none" stroke-width="2" d="M65,-33C65,-33 53,-33 53,-33 50,-33 47,-30 47,-27 47,-27 47,-21 47,-21 47,-18 50,-15 53,-15 53,-15 65,-15 65,-15 68,-15 71,-18 71,-21 71,-21 71,-27 71,-27 71,-30 68,-33 65,-33"/>
<text text-anchor="middle" x="59" y="-21.2" font-family="Helvetica,sans-Serif" font-size="11.00" fill="#000000">1.0</text>
</g>
<!-- input_4_2 -->
<g id="node14" class="node">
<title>input_4_2</title>
<path fill="#ffffff" stroke="none" stroke-width="2" d="M129,-33C129,-33 117,-33 117,-33 114,-33 111,-30 111,-27 111,-27 111,-21 111,-21 111,-18 114,-15 117,-15 117,-15 129,-15 129,-15 132,-15 135,-18 135,-21 135,-21 135,-27 135,-27 135,-30 132,-33 129,-33"/>
<text text-anchor="middle" x="123" y="-21.2" font-family="Helvetica,sans-Serif" font-size="11.00" fill="#000000">1.0</text>
</g>
<!-- output_2_2&#45;&gt;input_4_2 -->
<g id="edge8" class="edge">
<title>output_2_2&#45;&gt;input_4_2</title>
<path fill="none" stroke="#909090" d="M71.95,-24C80.96,-24 93.47,-24 103.73,-24"/>
<polygon fill="#909090" stroke="#909090" points="103.57,-25.75 108.57,-24 103.57,-22.25 103.57,-25.75"/>
</g>
<!-- output_3_1 -->
<g id="node11" class="node">
<title>output_3_1</title>
<path fill="#ffffff" stroke="#333333" stroke-width="2" d="M161,-117C161,-117 149,-117 149,-117 146,-117 143,-114 143,-111 143,-111 143,-105 143,-105 143,-102 146,-99 149,-99 149,-99 161,-99 161,-99 164,-99 167,-102 167,-105 167,-105 167,-111 167,-111 167,-114 164,-117 161,-117"/>
<text text-anchor="middle" x="155" y="-105.2" font-family="Helvetica,sans-Serif" font-size="11.00" fill="#000000">1.0</text>
</g>
<!-- input_3_1&#45;&gt;output_3_1 -->
<!-- output_3_2 -->
<g id="node12" class="node">
<title>output_3_2</title>
<path fill="#ffffff" stroke="#333333" stroke-width="2" d="M161,-95C161,-95 149,-95 149,-95 146,-95 143,-92 143,-89 143,-89 143,-83 143,-83 143,-80 146,-77 149,-77 149,-77 161,-77 161,-77 164,-77 167,-80 167,-83 167,-83 167,-89 167,-89 167,-92 164,-95 161,-95"/>
<text text-anchor="middle" x="155" y="-83.2" font-family="Helvetica,sans-Serif" font-size="11.00" fill="#000000">1.0</text>
</g>
<!-- output_4_1 -->
<g id="node15" class="node">
<title>output_4_1</title>
<path fill="#ffffff" stroke="#333333" stroke-width="2" d="M161,-55C161,-55 149,-55 149,-55 146,-55 143,-52 143,-49 143,-49 143,-43 143,-43 143,-40 146,-37 149,-37 149,-37 161,-37 161,-37 164,-37 167,-40 167,-43 167,-43 167,-49 167,-49 167,-52 164,-55 161,-55"/>
<text text-anchor="middle" x="155" y="-43.2" font-family="Helvetica,sans-Serif" font-size="11.00" fill="#000000">1.0</text>
</g>
<!-- input_4_1&#45;&gt;output_4_1 -->
<!-- output_4_2 -->
<g id="node16" class="node">
<title>output_4_2</title>
<path fill="#ffffff" stroke="#333333" stroke-width="2" d="M161,-33C161,-33 149,-33 149,-33 146,-33 143,-30 143,-27 143,-27 143,-21 143,-21 143,-18 146,-15 149,-15 149,-15 161,-15 161,-15 164,-15 167,-18 167,-21 167,-21 167,-27 167,-27 167,-30 164,-33 161,-33"/>
<text text-anchor="middle" x="155" y="-21.2" font-family="Helvetica,sans-Serif" font-size="11.00" fill="#000000">1.0</text>
</g>
</g>
</svg>
