<?xml version="1.0" encoding="UTF-8" standalone="no"?>
<!DOCTYPE svg PUBLIC "-//W3C//DTD SVG 1.1//EN"
 "http://www.w3.org/Graphics/SVG/1.1/DTD/svg11.dtd">
<!-- Generated by graphviz version 7.0.0 (0)
 -->
<!-- Pages: 1 -->
<svg width="142pt" height="161pt"
 viewBox="0.00 0.00 142.00 161.00" xmlns="http://www.w3.org/2000/svg" xmlns:xlink="http://www.w3.org/1999/xlink">
<g id="graph0" class="graph" transform="scale(1 1) rotate(0) translate(4 157)">
<g id="clust1" class="cluster">
<title>cluster_tx_1</title>
<path fill="#d0d0d0" stroke="#666666" stroke-width="0.5" d="M26.5,-8C26.5,-8 114,-8 114,-8 120,-8 126,-14 126,-20 126,-20 126,-116 126,-116 126,-122 120,-128 114,-128 114,-128 26.5,-128 26.5,-128 20.5,-128 14.5,-122 14.5,-116 14.5,-116 14.5,-20 14.5,-20 14.5,-14 20.5,-8 26.5,-8"/>
</g>
<g id="clust2" class="cluster">
<title>cluster_tx_2_inputs</title>
</g>
<g id="clust3" class="cluster">
<title>cluster_tx_2_outputs</title>
</g>
<!-- input_1_1 -->
<g id="node1" class="node">
<title>input_1_1</title>
<path fill="#ffffff" stroke="none" stroke-width="2" d="M39.5,-121C39.5,-121 27.5,-121 27.5,-121 24.5,-121 21.5,-118 21.5,-115 21.5,-115 21.5,-109 21.5,-109 21.5,-106 24.5,-103 27.5,-103 27.5,-103 39.5,-103 39.5,-103 42.5,-103 45.5,-106 45.5,-109 45.5,-109 45.5,-115 45.5,-115 45.5,-118 42.5,-121 39.5,-121"/>
<text text-anchor="middle" x="33.5" y="-109.2" font-family="Helvetica,sans-Serif" font-size="11.00" fill="#000000">1.0</text>
</g>
<!-- output_1_1 -->
<g id="node4" class="node">
<title>output_1_1</title>
<path fill="#ffffff" stroke="#333333" stroke-width="2" d="M103,-121C103,-121 91,-121 91,-121 88,-121 85,-118 85,-115 85,-115 85,-109 85,-109 85,-106 88,-103 91,-103 91,-103 103,-103 103,-103 106,-103 109,-106 109,-109 109,-109 109,-115 109,-115 109,-118 106,-121 103,-121"/>
<text text-anchor="middle" x="97" y="-109.2" font-family="Helvetica,sans-Serif" font-size="11.00" fill="#000000">0.7</text>
</g>
<!-- input_1_1&#45;&gt;output_1_1 -->
<!-- input_1_2 -->
<g id="node2" class="node">
<title>input_1_2</title>
<path fill="#ffffff" stroke="none" stroke-width="2" d="M39.5,-99C39.5,-99 27.5,-99 27.5,-99 24.5,-99 21.5,-96 21.5,-93 21.5,-93 21.5,-87 21.5,-87 21.5,-84 24.5,-81 27.5,-81 27.5,-81 39.5,-81 39.5,-81 42.5,-81 45.5,-84 45.5,-87 45.5,-87 45.5,-93 45.5,-93 45.5,-96 42.5,-99 39.5,-99"/>
<text text-anchor="middle" x="33.5" y="-87.2" font-family="Helvetica,sans-Serif" font-size="11.00" fill="#000000">1.5</text>
</g>
<!-- input_1_3 -->
<g id="node3" class="node">
<title>input_1_3</title>
<path fill="#ffffff" stroke="none" stroke-width="2" d="M39.5,-77C39.5,-77 27.5,-77 27.5,-77 24.5,-77 21.5,-74 21.5,-71 21.5,-71 21.5,-65 21.5,-65 21.5,-62 24.5,-59 27.5,-59 27.5,-59 39.5,-59 39.5,-59 42.5,-59 45.5,-62 45.5,-65 45.5,-65 45.5,-71 45.5,-71 45.5,-74 42.5,-77 39.5,-77"/>
<text text-anchor="middle" x="33.5" y="-65.2" font-family="Helvetica,sans-Serif" font-size="11.00" fill="#000000">0.5</text>
</g>
<!-- output_1_2 -->
<g id="node5" class="node">
<title>output_1_2</title>
<path fill="#ffffff" stroke="#333333" stroke-width="2" d="M103,-99C103,-99 91,-99 91,-99 88,-99 85,-96 85,-93 85,-93 85,-87 85,-87 85,-84 88,-81 91,-81 91,-81 103,-81 103,-81 106,-81 109,-84 109,-87 109,-87 109,-93 109,-93 109,-96 106,-99 103,-99"/>
<text text-anchor="middle" x="97" y="-87.2" font-family="Helvetica,sans-Serif" font-size="11.00" fill="#000000">0.4</text>
</g>
<!-- output_1_3 -->
<g id="node6" class="node">
<title>output_1_3</title>
<path fill="#ffffff" stroke="#333333" stroke-width="2" d="M113,-77C113,-77 81,-77 81,-77 78,-77 75,-74 75,-71 75,-71 75,-65 75,-65 75,-62 78,-59 81,-59 81,-59 113,-59 113,-59 116,-59 119,-62 119,-65 119,-65 119,-71 119,-71 119,-74 116,-77 113,-77"/>
<text text-anchor="middle" x="97" y="-65.2" font-family="Helvetica,sans-Serif" font-size="11.00" fill="#000000">0.2999</text>
</g>
<!-- output_1_5 -->
<g id="node7" class="node">
<title>output_1_5</title>
<path fill="#ffffff" stroke="none" stroke-width="2" d="M113,-55C113,-55 81,-55 81,-55 78,-55 75,-52 75,-49 75,-49 75,-43 75,-43 75,-40 78,-37 81,-37 81,-37 113,-37 113,-37 116,-37 119,-40 119,-43 119,-43 119,-49 119,-49 119,-52 116,-55 113,-55"/>
<text text-anchor="middle" x="97" y="-43.2" font-family="Helvetica,sans-Serif" font-size="11.00" fill="#000000">0.5999</text>
</g>
<!-- output_1_6 -->
<g id="node8" class="node">
<title>output_1_6</title>
<path fill="#ffffff" stroke="none" stroke-width="2" d="M103,-33C103,-33 91,-33 91,-33 88,-33 85,-30 85,-27 85,-27 85,-21 85,-21 85,-18 88,-15 91,-15 91,-15 103,-15 103,-15 106,-15 109,-18 109,-21 109,-21 109,-27 109,-27 109,-30 106,-33 103,-33"/>
<text text-anchor="middle" x="97" y="-21.2" font-family="Helvetica,sans-Serif" font-size="11.00" fill="#000000">0.5</text>
</g>
<!-- output_1_4 -->
<g id="node9" class="node">
<title>output_1_4</title>
<path fill="#ffffff" stroke="#333333" stroke-width="2" d="M61,-153C61,-153 6,-153 6,-153 3,-153 0,-150 0,-147 0,-147 0,-141 0,-141 0,-138 3,-135 6,-135 6,-135 61,-135 61,-135 64,-135 67,-138 67,-141 67,-141 67,-147 67,-147 67,-150 64,-153 61,-153"/>
<text text-anchor="middle" x="33.5" y="-141.2" font-family="Helvetica,sans-Serif" font-size="11.00" fill="#000000">output_1_4</text>
</g>
</g>
</svg>
