<?xml version="1.0" encoding="UTF-8" standalone="no"?>
<!DOCTYPE svg PUBLIC "-//W3C//DTD SVG 1.1//EN"
 "http://www.w3.org/Graphics/SVG/1.1/DTD/svg11.dtd">
<!-- Generated by graphviz version 7.0.0 (0)
 -->
<!-- Pages: 1 -->
<svg width="94pt" height="122pt"
 viewBox="0.00 0.00 94.00 122.00" xmlns="http://www.w3.org/2000/svg" xmlns:xlink="http://www.w3.org/1999/xlink">
<g id="graph0" class="graph" transform="scale(1 1) rotate(0) translate(4 118)">
<g id="clust1" class="cluster">
<title>cluster_tx_1</title>
<path fill="#d0d0d0" stroke="#666666" stroke-width="0.5" d="M20,-8C20,-8 66,-8 66,-8 72,-8 78,-14 78,-20 78,-20 78,-94 78,-94 78,-100 72,-106 66,-106 66,-106 20,-106 20,-106 14,-106 8,-100 8,-94 8,-94 8,-20 8,-20 8,-14 14,-8 20,-8"/>
</g>
<g id="clust2" class="cluster">
<title>cluster_tx_1_inputs</title>
</g>
<g id="clust3" class="cluster">
<title>cluster_tx_1_outputs</title>
</g>
<!-- input_1_1 -->
<g id="node1" class="node">
<title>input_1_1</title>
<path fill="#ffffff" stroke="none" stroke-width="2" d="M33,-99C33,-99 21,-99 21,-99 18,-99 15,-96 15,-93 15,-93 15,-87 15,-87 15,-84 18,-81 21,-81 21,-81 33,-81 33,-81 36,-81 39,-84 39,-87 39,-87 39,-93 39,-93 39,-96 36,-99 33,-99"/>
<text text-anchor="middle" x="27" y="-87.2" font-family="Helvetica,sans-Serif" font-size="11.00" fill="#000000">1.0</text>
</g>
<!-- output_1_1 -->
<g id="node5" class="node">
<title>output_1_1</title>
<path fill="#ffffff" stroke="#333333" stroke-width="2" d="M65,-99C65,-99 53,-99 53,-99 50,-99 47,-96 47,-93 47,-93 47,-87 47,-87 47,-84 50,-81 53,-81 53,-81 65,-81 65,-81 68,-81 71,-84 71,-87 71,-87 71,-93 71,-93 71,-96 68,-99 65,-99"/>
<text text-anchor="middle" x="59" y="-87.2" font-family="Helvetica,sans-Serif" font-size="11.00" fill="#000000">1.0</text>
</g>
<!-- input_1_1&#45;&gt;output_1_1 -->
<!-- input_1_2 -->
<g id="node2" class="node">
<title>input_1_2</title>
<path fill="#ffffff" stroke="none" stroke-width="2" d="M33,-77C33,-77 21,-77 21,-77 18,-77 15,-74 15,-71 15,-71 15,-65 15,-65 15,-62 18,-59 21,-59 21,-59 33,-59 33,-59 36,-59 39,-62 39,-65 39,-65 39,-71 39,-71 39,-74 36,-77 33,-77"/>
<text text-anchor="middle" x="27" y="-65.2" font-family="Helvetica,sans-Serif" font-size="11.00" fill="#000000">1.0</text>
</g>
<!-- input_1_3 -->
<g id="node3" class="node">
<title>input_1_3</title>
<path fill="#ffffff" stroke="none" stroke-width="2" d="M33,-55C33,-55 21,-55 21,-55 18,-55 15,-52 15,-49 15,-49 15,-43 15,-43 15,-40 18,-37 21,-37 21,-37 33,-37 33,-37 36,-37 39,-40 39,-43 39,-43 39,-49 39,-49 39,-52 36,-55 33,-55"/>
<text text-anchor="middle" x="27" y="-43.2" font-family="Helvetica,sans-Serif" font-size="11.00" fill="#000000">1.0</text>
</g>
<!-- input_1_4 -->
<g id="node4" class="node">
<title>input_1_4</title>
<path fill="#ffffff" stroke="none" stroke-width="2" d="M33,-33C33,-33 21,-33 21,-33 18,-33 15,-30 15,-27 15,-27 15,-21 15,-21 15,-18 18,-15 21,-15 21,-15 33,-15 33,-15 36,-15 39,-18 39,-21 39,-21 39,-27 39,-27 39,-30 36,-33 33,-33"/>
<text text-anchor="middle" x="27" y="-21.2" font-family="Helvetica,sans-Serif" font-size="11.00" fill="#000000">1.0</text>
</g>
<!-- output_1_2 -->
<g id="node6" class="node">
<title>output_1_2</title>
<path fill="#ffffff" stroke="#333333" stroke-width="2" d="M65,-77C65,-77 53,-77 53,-77 50,-77 47,-74 47,-71 47,-71 47,-65 47,-65 47,-62 50,-59 53,-59 53,-59 65,-59 65,-59 68,-59 71,-62 71,-65 71,-65 71,-71 71,-71 71,-74 68,-77 65,-77"/>
<text text-anchor="middle" x="59" y="-65.2" font-family="Helvetica,sans-Serif" font-size="11.00" fill="#000000">1.0</text>
</g>
<!-- output_1_3 -->
<g id="node7" class="node">
<title>output_1_3</title>
<path fill="#ffffff" stroke="#333333" stroke-width="2" d="M65,-55C65,-55 53,-55 53,-55 50,-55 47,-52 47,-49 47,-49 47,-43 47,-43 47,-40 50,-37 53,-37 53,-37 65,-37 65,-37 68,-37 71,-40 71,-43 71,-43 71,-49 71,-49 71,-52 68,-55 65,-55"/>
<text text-anchor="middle" x="59" y="-43.2" font-family="Helvetica,sans-Serif" font-size="11.00" fill="#000000">1.0</text>
</g>
<!-- output_1_4 -->
<g id="node8" class="node">
<title>output_1_4</title>
<path fill="#ffffff" stroke="#333333" stroke-width="2" d="M65,-33C65,-33 53,-33 53,-33 50,-33 47,-30 47,-27 47,-27 47,-21 47,-21 47,-18 50,-15 53,-15 53,-15 65,-15 65,-15 68,-15 71,-18 71,-21 71,-21 71,-27 71,-27 71,-30 68,-33 65,-33"/>
<text text-anchor="middle" x="59" y="-21.2" font-family="Helvetica,sans-Serif" font-size="11.00" fill="#000000">1.0</text>
</g>
</g>
</svg>
