<?xml version="1.0" encoding="UTF-8" standalone="no"?>
<!DOCTYPE svg PUBLIC "-//W3C//DTD SVG 1.1//EN"
 "http://www.w3.org/Graphics/SVG/1.1/DTD/svg11.dtd">
<!-- Generated by graphviz version 7.0.0 (0)
 -->
<!-- Pages: 1 -->
<svg width="250pt" height="140pt"
 viewBox="0.00 0.00 250.00 140.00" xmlns="http://www.w3.org/2000/svg" xmlns:xlink="http://www.w3.org/1999/xlink">
<g id="graph0" class="graph" transform="scale(1 1) rotate(0) translate(4 136)">
<g id="clust1" class="cluster">
<title>cluster_tx_3</title>
<path fill="#d0d0d0" stroke="#666666" stroke-width="0.5" d="M20,-70C20,-70 86,-70 86,-70 92,-70 98,-76 98,-82 98,-82 98,-112 98,-112 98,-118 92,-124 86,-124 86,-124 20,-124 20,-124 14,-124 8,-118 8,-112 8,-112 8,-82 8,-82 8,-76 14,-70 20,-70"/>
</g>
<g id="clust2" class="cluster">
<title>cluster_tx_1_inputs</title>
</g>
<g id="clust3" class="cluster">
<title>cluster_tx_1_outputs</title>
</g>
<g id="clust4" class="cluster">
<title>cluster_tx_1</title>
<path fill="#d0d0d0" stroke="#666666" stroke-width="0.5" d="M20,-8C20,-8 86,-8 86,-8 92,-8 98,-14 98,-20 98,-20 98,-50 98,-50 98,-56 92,-62 86,-62 86,-62 20,-62 20,-62 14,-62 8,-56 8,-50 8,-50 8,-20 8,-20 8,-14 14,-8 20,-8"/>
</g>
<g id="clust5" class="cluster">
<title>cluster_tx_1_inputs</title>
</g>
<g id="clust6" class="cluster">
<title>cluster_tx_1_outputs</title>
</g>
<g id="clust7" class="cluster">
<title>cluster_tx_2</title>
<path fill="#d0d0d0" stroke="#666666" stroke-width="0.5" d="M136,-41C136,-41 222,-41 222,-41 228,-41 234,-47 234,-53 234,-53 234,-83 234,-83 234,-89 228,-95 222,-95 222,-95 136,-95 136,-95 130,-95 124,-89 124,-83 124,-83 124,-53 124,-53 124,-47 130,-41 136,-41"/>
</g>
<g id="clust8" class="cluster">
<title>cluster_tx_2_inputs</title>
</g>
<g id="clust9" class="cluster">
<title>cluster_tx_2_outputs</title>
</g>
<!-- input_3_1 -->
<g id="node1" class="node">
<title>input_3_1</title>
<path fill="#ffffff" stroke="none" stroke-width="2" d="M33,-95C33,-95 21,-95 21,-95 18,-95 15,-92 15,-89 15,-89 15,-83 15,-83 15,-80 18,-77 21,-77 21,-77 33,-77 33,-77 36,-77 39,-80 39,-83 39,-83 39,-89 39,-89 39,-92 36,-95 33,-95"/>
<text text-anchor="middle" x="27" y="-83.2" font-family="Helvetica,sans-Serif" font-size="11.00" fill="#000000">1.8</text>
</g>
<!-- output_3_2 -->
<g id="node3" class="node">
<title>output_3_2</title>
<path fill="#ffffff" stroke="none" stroke-width="2" d="M85,-95C85,-95 53,-95 53,-95 50,-95 47,-92 47,-89 47,-89 47,-83 47,-83 47,-80 50,-77 53,-77 53,-77 85,-77 85,-77 88,-77 91,-80 91,-83 91,-83 91,-89 91,-89 91,-92 88,-95 85,-95"/>
<text text-anchor="middle" x="69" y="-83.2" font-family="Helvetica,sans-Serif" font-size="11.00" fill="#000000">0.7999</text>
</g>
<!-- input_3_1&#45;&gt;output_3_2 -->
<!-- output_3_1 -->
<g id="node2" class="node">
<title>output_3_1</title>
<path fill="#ffffff" stroke="#333333" stroke-width="2" d="M75,-117C75,-117 63,-117 63,-117 60,-117 57,-114 57,-111 57,-111 57,-105 57,-105 57,-102 60,-99 63,-99 63,-99 75,-99 75,-99 78,-99 81,-102 81,-105 81,-105 81,-111 81,-111 81,-114 78,-117 75,-117"/>
<text text-anchor="middle" x="69" y="-105.2" font-family="Helvetica,sans-Serif" font-size="11.00" fill="#000000">1.0</text>
</g>
<!-- input_2_2 -->
<g id="node9" class="node">
<title>input_2_2</title>
<path fill="#ffffff" stroke="none" stroke-width="2" d="M169,-88C169,-88 137,-88 137,-88 134,-88 131,-85 131,-82 131,-82 131,-76 131,-76 131,-73 134,-70 137,-70 137,-70 169,-70 169,-70 172,-70 175,-73 175,-76 175,-76 175,-82 175,-82 175,-85 172,-88 169,-88"/>
<text text-anchor="middle" x="153" y="-76.2" font-family="Helvetica,sans-Serif" font-size="11.00" fill="#000000">0.7999</text>
</g>
<!-- output_3_2&#45;&gt;input_2_2 -->
<g id="edge5" class="edge">
<title>output_3_2&#45;&gt;input_2_2</title>
<path fill="none" stroke="#909090" d="M91.97,-84.12C101.8,-83.29 113.49,-82.29 123.93,-81.4"/>
<polygon fill="#909090" stroke="#909090" points="123.91,-83.15 128.74,-80.99 123.61,-79.67 123.91,-83.15"/>
</g>
<!-- input_1_1 -->
<g id="node4" class="node">
<title>input_1_1</title>
<path fill="#ffffff" stroke="none" stroke-width="2" d="M33,-55C33,-55 21,-55 21,-55 18,-55 15,-52 15,-49 15,-49 15,-43 15,-43 15,-40 18,-37 21,-37 21,-37 33,-37 33,-37 36,-37 39,-40 39,-43 39,-43 39,-49 39,-49 39,-52 36,-55 33,-55"/>
<text text-anchor="middle" x="27" y="-43.2" font-family="Helvetica,sans-Serif" font-size="11.00" fill="#000000">1.0</text>
</g>
<!-- output_1_1 -->
<g id="node6" class="node">
<title>output_1_1</title>
<path fill="#ffffff" stroke="none" stroke-width="2" d="M75,-55C75,-55 63,-55 63,-55 60,-55 57,-52 57,-49 57,-49 57,-43 57,-43 57,-40 60,-37 63,-37 63,-37 75,-37 75,-37 78,-37 81,-40 81,-43 81,-43 81,-49 81,-49 81,-52 78,-55 75,-55"/>
<text text-anchor="middle" x="69" y="-43.2" font-family="Helvetica,sans-Serif" font-size="11.00" fill="#000000">1.1</text>
</g>
<!-- input_1_1&#45;&gt;output_1_1 -->
<!-- input_1_2 -->
<g id="node5" class="node">
<title>input_1_2</title>
<path fill="#ffffff" stroke="none" stroke-width="2" d="M33,-33C33,-33 21,-33 21,-33 18,-33 15,-30 15,-27 15,-27 15,-21 15,-21 15,-18 18,-15 21,-15 21,-15 33,-15 33,-15 36,-15 39,-18 39,-21 39,-21 39,-27 39,-27 39,-30 36,-33 33,-33"/>
<text text-anchor="middle" x="27" y="-21.2" font-family="Helvetica,sans-Serif" font-size="11.00" fill="#000000">0.2</text>
</g>
<!-- input_2_1 -->
<g id="node8" class="node">
<title>input_2_1</title>
<path fill="#ffffff" stroke="none" stroke-width="2" d="M159,-66C159,-66 147,-66 147,-66 144,-66 141,-63 141,-60 141,-60 141,-54 141,-54 141,-51 144,-48 147,-48 147,-48 159,-48 159,-48 162,-48 165,-51 165,-54 165,-54 165,-60 165,-60 165,-63 162,-66 159,-66"/>
<text text-anchor="middle" x="153" y="-54.2" font-family="Helvetica,sans-Serif" font-size="11.00" fill="#000000">1.1</text>
</g>
<!-- output_1_1&#45;&gt;input_2_1 -->
<g id="edge4" class="edge">
<title>output_1_1&#45;&gt;input_2_1</title>
<path fill="none" stroke="#909090" d="M81.75,-47.58C95.31,-49.4 117.78,-52.41 133.65,-54.54"/>
<polygon fill="#909090" stroke="#909090" points="133.32,-56.26 138.51,-55.19 133.78,-52.79 133.32,-56.26"/>
</g>
<!-- output_1_3 -->
<g id="node7" class="node">
<title>output_1_3</title>
<path fill="#ffffff" stroke="#333333" stroke-width="2" d="M85,-33C85,-33 53,-33 53,-33 50,-33 47,-30 47,-27 47,-27 47,-21 47,-21 47,-18 50,-15 53,-15 53,-15 85,-15 85,-15 88,-15 91,-18 91,-21 91,-21 91,-27 91,-27 91,-30 88,-33 85,-33"/>
<text text-anchor="middle" x="69" y="-21.2" font-family="Helvetica,sans-Serif" font-size="11.00" fill="#000000">0.0999</text>
</g>
<!-- output_2_1 -->
<g id="node10" class="node">
<title>output_2_1</title>
<path fill="#ffffff" stroke="#333333" stroke-width="2" d="M211,-88C211,-88 199,-88 199,-88 196,-88 193,-85 193,-82 193,-82 193,-76 193,-76 193,-73 196,-70 199,-70 199,-70 211,-70 211,-70 214,-70 217,-73 217,-76 217,-76 217,-82 217,-82 217,-85 214,-88 211,-88"/>
<text text-anchor="middle" x="205" y="-76.2" font-family="Helvetica,sans-Serif" font-size="11.00" fill="#000000">1.0</text>
</g>
<!-- input_2_1&#45;&gt;output_2_1 -->
<!-- output_2_2 -->
<g id="node11" class="node">
<title>output_2_2</title>
<path fill="#ffffff" stroke="#333333" stroke-width="2" d="M221,-66C221,-66 189,-66 189,-66 186,-66 183,-63 183,-60 183,-60 183,-54 183,-54 183,-51 186,-48 189,-48 189,-48 221,-48 221,-48 224,-48 227,-51 227,-54 227,-54 227,-60 227,-60 227,-63 224,-66 221,-66"/>
<text text-anchor="middle" x="205" y="-54.2" font-family="Helvetica,sans-Serif" font-size="11.00" fill="#000000">0.8998</text>
</g>
</g>
</svg>
