<?xml version="1.0" encoding="UTF-8" standalone="no"?>
<!DOCTYPE svg PUBLIC "-//W3C//DTD SVG 1.1//EN"
 "http://www.w3.org/Graphics/SVG/1.1/DTD/svg11.dtd">
<!-- Generated by graphviz version 7.0.0 (0)
 -->
<!-- Pages: 1 -->
<svg width="108pt" height="254pt"
 viewBox="0.00 0.00 108.00 254.00" xmlns="http://www.w3.org/2000/svg" xmlns:xlink="http://www.w3.org/1999/xlink">
<g id="graph0" class="graph" transform="scale(1 1) rotate(0) translate(4 250)">
<g id="clust1" class="cluster">
<title>cluster_tx_1</title>
<path fill="#d0d0d0" stroke="#666666" stroke-width="0.5" d="M20,-8C20,-8 80,-8 80,-8 86,-8 92,-14 92,-20 92,-20 92,-226 92,-226 92,-232 86,-238 80,-238 80,-238 20,-238 20,-238 14,-238 8,-232 8,-226 8,-226 8,-20 8,-20 8,-14 14,-8 20,-8"/>
</g>
<g id="clust2" class="cluster">
<title>cluster_tx_2_inputs</title>
</g>
<g id="clust3" class="cluster">
<title>cluster_tx_2_outputs</title>
</g>
<!-- input_1_1 -->
<g id="node1" class="node">
<title>input_1_1</title>
<path fill="#ffffff" stroke="none" stroke-width="2" d="M40,-231C40,-231 21,-231 21,-231 18,-231 15,-228 15,-225 15,-225 15,-219 15,-219 15,-216 18,-213 21,-213 21,-213 40,-213 40,-213 43,-213 46,-216 46,-219 46,-219 46,-225 46,-225 46,-228 43,-231 40,-231"/>
<text text-anchor="middle" x="30.5" y="-219.2" font-family="Helvetica,sans-Serif" font-size="11.00" fill="#000000">1.23</text>
</g>
<!-- output_1_1 -->
<g id="node9" class="node">
<title>output_1_1</title>
<path fill="#ffffff" stroke="#333333" stroke-width="2" d="M75.5,-231C75.5,-231 63.5,-231 63.5,-231 60.5,-231 57.5,-228 57.5,-225 57.5,-225 57.5,-219 57.5,-219 57.5,-216 60.5,-213 63.5,-213 63.5,-213 75.5,-213 75.5,-213 78.5,-213 81.5,-216 81.5,-219 81.5,-219 81.5,-225 81.5,-225 81.5,-228 78.5,-231 75.5,-231"/>
<text text-anchor="middle" x="69.5" y="-219.2" font-family="Helvetica,sans-Serif" font-size="11.00" fill="#000000">1.0</text>
</g>
<!-- input_1_1&#45;&gt;output_1_1 -->
<!-- input_1_2 -->
<g id="node2" class="node">
<title>input_1_2</title>
<path fill="#ffffff" stroke="none" stroke-width="2" d="M40,-209C40,-209 21,-209 21,-209 18,-209 15,-206 15,-203 15,-203 15,-197 15,-197 15,-194 18,-191 21,-191 21,-191 40,-191 40,-191 43,-191 46,-194 46,-197 46,-197 46,-203 46,-203 46,-206 43,-209 40,-209"/>
<text text-anchor="middle" x="30.5" y="-197.2" font-family="Helvetica,sans-Serif" font-size="11.00" fill="#000000">0.75</text>
</g>
<!-- input_1_3 -->
<g id="node3" class="node">
<title>input_1_3</title>
<path fill="#ffffff" stroke="none" stroke-width="2" d="M36.5,-187C36.5,-187 24.5,-187 24.5,-187 21.5,-187 18.5,-184 18.5,-181 18.5,-181 18.5,-175 18.5,-175 18.5,-172 21.5,-169 24.5,-169 24.5,-169 36.5,-169 36.5,-169 39.5,-169 42.5,-172 42.5,-175 42.5,-175 42.5,-181 42.5,-181 42.5,-184 39.5,-187 36.5,-187"/>
<text text-anchor="middle" x="30.5" y="-175.2" font-family="Helvetica,sans-Serif" font-size="11.00" fill="#000000">1.0</text>
</g>
<!-- input_1_4 -->
<g id="node4" class="node">
<title>input_1_4</title>
<path fill="#ffffff" stroke="none" stroke-width="2" d="M36.5,-165C36.5,-165 24.5,-165 24.5,-165 21.5,-165 18.5,-162 18.5,-159 18.5,-159 18.5,-153 18.5,-153 18.5,-150 21.5,-147 24.5,-147 24.5,-147 36.5,-147 36.5,-147 39.5,-147 42.5,-150 42.5,-153 42.5,-153 42.5,-159 42.5,-159 42.5,-162 39.5,-165 36.5,-165"/>
<text text-anchor="middle" x="30.5" y="-153.2" font-family="Helvetica,sans-Serif" font-size="11.00" fill="#000000">0.2</text>
</g>
<!-- input_1_8 -->
<g id="node5" class="node">
<title>input_1_8</title>
<path fill="#ffffff" stroke="none" stroke-width="2" d="M40,-143C40,-143 21,-143 21,-143 18,-143 15,-140 15,-137 15,-137 15,-131 15,-131 15,-128 18,-125 21,-125 21,-125 40,-125 40,-125 43,-125 46,-128 46,-131 46,-131 46,-137 46,-137 46,-140 43,-143 40,-143"/>
<text text-anchor="middle" x="30.5" y="-131.2" font-family="Helvetica,sans-Serif" font-size="11.00" fill="#000000">0.05</text>
</g>
<!-- input_1_9 -->
<g id="node6" class="node">
<title>input_1_9</title>
<path fill="#ffffff" stroke="none" stroke-width="2" d="M40,-121C40,-121 21,-121 21,-121 18,-121 15,-118 15,-115 15,-115 15,-109 15,-109 15,-106 18,-103 21,-103 21,-103 40,-103 40,-103 43,-103 46,-106 46,-109 46,-109 46,-115 46,-115 46,-118 43,-121 40,-121"/>
<text text-anchor="middle" x="30.5" y="-109.2" font-family="Helvetica,sans-Serif" font-size="11.00" fill="#000000">0.02</text>
</g>
<!-- input_1_7 -->
<g id="node7" class="node">
<title>input_1_7</title>
<path fill="#ffffff" stroke="none" stroke-width="2" d="M36.5,-99C36.5,-99 24.5,-99 24.5,-99 21.5,-99 18.5,-96 18.5,-93 18.5,-93 18.5,-87 18.5,-87 18.5,-84 21.5,-81 24.5,-81 24.5,-81 36.5,-81 36.5,-81 39.5,-81 42.5,-84 42.5,-87 42.5,-87 42.5,-93 42.5,-93 42.5,-96 39.5,-99 36.5,-99"/>
<text text-anchor="middle" x="30.5" y="-87.2" font-family="Helvetica,sans-Serif" font-size="11.00" fill="#000000">0.5</text>
</g>
<!-- input_1_5 -->
<g id="node8" class="node">
<title>input_1_5</title>
<path fill="#ffffff" stroke="none" stroke-width="2" d="M40,-77C40,-77 21,-77 21,-77 18,-77 15,-74 15,-71 15,-71 15,-65 15,-65 15,-62 18,-59 21,-59 21,-59 40,-59 40,-59 43,-59 46,-62 46,-65 46,-65 46,-71 46,-71 46,-74 43,-77 40,-77"/>
<text text-anchor="middle" x="30.5" y="-65.2" font-family="Helvetica,sans-Serif" font-size="11.00" fill="#000000">0.05</text>
</g>
<!-- output_1_2 -->
<g id="node10" class="node">
<title>output_1_2</title>
<path fill="#ffffff" stroke="#333333" stroke-width="2" d="M75.5,-209C75.5,-209 63.5,-209 63.5,-209 60.5,-209 57.5,-206 57.5,-203 57.5,-203 57.5,-197 57.5,-197 57.5,-194 60.5,-191 63.5,-191 63.5,-191 75.5,-191 75.5,-191 78.5,-191 81.5,-194 81.5,-197 81.5,-197 81.5,-203 81.5,-203 81.5,-206 78.5,-209 75.5,-209"/>
<text text-anchor="middle" x="69.5" y="-197.2" font-family="Helvetica,sans-Serif" font-size="11.00" fill="#000000">0.2</text>
</g>
<!-- output_1_3 -->
<g id="node11" class="node">
<title>output_1_3</title>
<path fill="#ffffff" stroke="#333333" stroke-width="2" d="M79,-187C79,-187 60,-187 60,-187 57,-187 54,-184 54,-181 54,-181 54,-175 54,-175 54,-172 57,-169 60,-169 60,-169 79,-169 79,-169 82,-169 85,-172 85,-175 85,-175 85,-181 85,-181 85,-184 82,-187 79,-187"/>
<text text-anchor="middle" x="69.5" y="-175.2" font-family="Helvetica,sans-Serif" font-size="11.00" fill="#000000">0.02</text>
</g>
<!-- output_1_4 -->
<g id="node12" class="node">
<title>output_1_4</title>
<path fill="#ffffff" stroke="#333333" stroke-width="2" d="M79,-165C79,-165 60,-165 60,-165 57,-165 54,-162 54,-159 54,-159 54,-153 54,-153 54,-150 57,-147 60,-147 60,-147 79,-147 79,-147 82,-147 85,-150 85,-153 85,-153 85,-159 85,-159 85,-162 82,-165 79,-165"/>
<text text-anchor="middle" x="69.5" y="-153.2" font-family="Helvetica,sans-Serif" font-size="11.00" fill="#000000">0.01</text>
</g>
<!-- output_1_5 -->
<g id="node13" class="node">
<title>output_1_5</title>
<path fill="#ffffff" stroke="#333333" stroke-width="2" d="M75.5,-143C75.5,-143 63.5,-143 63.5,-143 60.5,-143 57.5,-140 57.5,-137 57.5,-137 57.5,-131 57.5,-131 57.5,-128 60.5,-125 63.5,-125 63.5,-125 75.5,-125 75.5,-125 78.5,-125 81.5,-128 81.5,-131 81.5,-131 81.5,-137 81.5,-137 81.5,-140 78.5,-143 75.5,-143"/>
<text text-anchor="middle" x="69.5" y="-131.2" font-family="Helvetica,sans-Serif" font-size="11.00" fill="#000000">0.5</text>
</g>
<!-- output_1_6 -->
<g id="node14" class="node">
<title>output_1_6</title>
<path fill="#ffffff" stroke="#333333" stroke-width="2" d="M75.5,-121C75.5,-121 63.5,-121 63.5,-121 60.5,-121 57.5,-118 57.5,-115 57.5,-115 57.5,-109 57.5,-109 57.5,-106 60.5,-103 63.5,-103 63.5,-103 75.5,-103 75.5,-103 78.5,-103 81.5,-106 81.5,-109 81.5,-109 81.5,-115 81.5,-115 81.5,-118 78.5,-121 75.5,-121"/>
<text text-anchor="middle" x="69.5" y="-109.2" font-family="Helvetica,sans-Serif" font-size="11.00" fill="#000000">0.2</text>
</g>
<!-- output_1_7 -->
<g id="node15" class="node">
<title>output_1_7</title>
<path fill="#ffffff" stroke="#333333" stroke-width="2" d="M79,-99C79,-99 60,-99 60,-99 57,-99 54,-96 54,-93 54,-93 54,-87 54,-87 54,-84 57,-81 60,-81 60,-81 79,-81 79,-81 82,-81 85,-84 85,-87 85,-87 85,-93 85,-93 85,-96 82,-99 79,-99"/>
<text text-anchor="middle" x="69.5" y="-87.2" font-family="Helvetica,sans-Serif" font-size="11.00" fill="#000000">0.05</text>
</g>
<!-- output_1_8 -->
<g id="node16" class="node">
<title>output_1_8</title>
<path fill="#ffffff" stroke="#333333" stroke-width="2" d="M75.5,-77C75.5,-77 63.5,-77 63.5,-77 60.5,-77 57.5,-74 57.5,-71 57.5,-71 57.5,-65 57.5,-65 57.5,-62 60.5,-59 63.5,-59 63.5,-59 75.5,-59 75.5,-59 78.5,-59 81.5,-62 81.5,-65 81.5,-65 81.5,-71 81.5,-71 81.5,-74 78.5,-77 75.5,-77"/>
<text text-anchor="middle" x="69.5" y="-65.2" font-family="Helvetica,sans-Serif" font-size="11.00" fill="#000000">1.2</text>
</g>
<!-- output_1_9 -->
<g id="node17" class="node">
<title>output_1_9</title>
<path fill="#ffffff" stroke="#333333" stroke-width="2" d="M79,-55C79,-55 60,-55 60,-55 57,-55 54,-52 54,-49 54,-49 54,-43 54,-43 54,-40 57,-37 60,-37 60,-37 79,-37 79,-37 82,-37 85,-40 85,-43 85,-43 85,-49 85,-49 85,-52 82,-55 79,-55"/>
<text text-anchor="middle" x="69.5" y="-43.2" font-family="Helvetica,sans-Serif" font-size="11.00" fill="#000000">0.55</text>
</g>
<!-- output_1_10 -->
<g id="node18" class="node">
<title>output_1_10</title>
<path fill="#ffffff" stroke="#333333" stroke-width="2" d="M79,-33C79,-33 60,-33 60,-33 57,-33 54,-30 54,-27 54,-27 54,-21 54,-21 54,-18 57,-15 60,-15 60,-15 79,-15 79,-15 82,-15 85,-18 85,-21 85,-21 85,-27 85,-27 85,-30 82,-33 79,-33"/>
<text text-anchor="middle" x="69.5" y="-21.2" font-family="Helvetica,sans-Serif" font-size="11.00" fill="#000000">0.27</text>
</g>
</g>
</svg>
