<?xml version="1.0" encoding="UTF-8" standalone="no"?>
<!DOCTYPE svg PUBLIC "-//W3C//DTD SVG 1.1//EN"
 "http://www.w3.org/Graphics/SVG/1.1/DTD/svg11.dtd">
<!-- Generated by graphviz version 7.0.0 (0)
 -->
<!-- Pages: 1 -->
<svg width="114pt" height="122pt"
 viewBox="0.00 0.00 114.00 122.00" xmlns="http://www.w3.org/2000/svg" xmlns:xlink="http://www.w3.org/1999/xlink">
<g id="graph0" class="graph" transform="scale(1 1) rotate(0) translate(4 118)">
<g id="clust1" class="cluster">
<title>cluster_tx_1</title>
<path fill="#d0d0d0" stroke="#666666" stroke-width="0.5" d="M20,-8C20,-8 86,-8 86,-8 92,-8 98,-14 98,-20 98,-20 98,-94 98,-94 98,-100 92,-106 86,-106 86,-106 20,-106 20,-106 14,-106 8,-100 8,-94 8,-94 8,-20 8,-20 8,-14 14,-8 20,-8"/>
</g>
<g id="clust2" class="cluster">
<title>cluster_tx_2_inputs</title>
</g>
<g id="clust3" class="cluster">
<title>cluster_tx_2_outputs</title>
</g>
<!-- input_1_1 -->
<g id="node1" class="node">
<title>input_1_1</title>
<path fill="#ffffff" stroke="none" stroke-width="2" d="M33,-99C33,-99 21,-99 21,-99 18,-99 15,-96 15,-93 15,-93 15,-87 15,-87 15,-84 18,-81 21,-81 21,-81 33,-81 33,-81 36,-81 39,-84 39,-87 39,-87 39,-93 39,-93 39,-96 36,-99 33,-99"/>
<text text-anchor="middle" x="27" y="-87.2" font-family="Helvetica,sans-Serif" font-size="11.00" fill="#000000">1.0</text>
</g>
<!-- output_1_1 -->
<g id="node4" class="node">
<title>output_1_1</title>
<path fill="#ffffff" stroke="#333333" stroke-width="2" d="M75,-99C75,-99 63,-99 63,-99 60,-99 57,-96 57,-93 57,-93 57,-87 57,-87 57,-84 60,-81 63,-81 63,-81 75,-81 75,-81 78,-81 81,-84 81,-87 81,-87 81,-93 81,-93 81,-96 78,-99 75,-99"/>
<text text-anchor="middle" x="69" y="-87.2" font-family="Helvetica,sans-Serif" font-size="11.00" fill="#000000">0.7</text>
</g>
<!-- input_1_1&#45;&gt;output_1_1 -->
<!-- input_1_2 -->
<g id="node2" class="node">
<title>input_1_2</title>
<path fill="#ffffff" stroke="none" stroke-width="2" d="M33,-77C33,-77 21,-77 21,-77 18,-77 15,-74 15,-71 15,-71 15,-65 15,-65 15,-62 18,-59 21,-59 21,-59 33,-59 33,-59 36,-59 39,-62 39,-65 39,-65 39,-71 39,-71 39,-74 36,-77 33,-77"/>
<text text-anchor="middle" x="27" y="-65.2" font-family="Helvetica,sans-Serif" font-size="11.00" fill="#000000">1.5</text>
</g>
<!-- input_1_3 -->
<g id="node3" class="node">
<title>input_1_3</title>
<path fill="#ffffff" stroke="none" stroke-width="2" d="M33,-55C33,-55 21,-55 21,-55 18,-55 15,-52 15,-49 15,-49 15,-43 15,-43 15,-40 18,-37 21,-37 21,-37 33,-37 33,-37 36,-37 39,-40 39,-43 39,-43 39,-49 39,-49 39,-52 36,-55 33,-55"/>
<text text-anchor="middle" x="27" y="-43.2" font-family="Helvetica,sans-Serif" font-size="11.00" fill="#000000">0.5</text>
</g>
<!-- output_1_2 -->
<g id="node5" class="node">
<title>output_1_2</title>
<path fill="#ffffff" stroke="#333333" stroke-width="2" d="M75,-77C75,-77 63,-77 63,-77 60,-77 57,-74 57,-71 57,-71 57,-65 57,-65 57,-62 60,-59 63,-59 63,-59 75,-59 75,-59 78,-59 81,-62 81,-65 81,-65 81,-71 81,-71 81,-74 78,-77 75,-77"/>
<text text-anchor="middle" x="69" y="-65.2" font-family="Helvetica,sans-Serif" font-size="11.00" fill="#000000">0.4</text>
</g>
<!-- output_1_3 -->
<g id="node6" class="node">
<title>output_1_3</title>
<path fill="#ffffff" stroke="#333333" stroke-width="2" d="M85,-55C85,-55 53,-55 53,-55 50,-55 47,-52 47,-49 47,-49 47,-43 47,-43 47,-40 50,-37 53,-37 53,-37 85,-37 85,-37 88,-37 91,-40 91,-43 91,-43 91,-49 91,-49 91,-52 88,-55 85,-55"/>
<text text-anchor="middle" x="69" y="-43.2" font-family="Helvetica,sans-Serif" font-size="11.00" fill="#000000">0.5999</text>
</g>
<!-- output_1_4 -->
<g id="node7" class="node">
<title>output_1_4</title>
<path fill="#ffffff" stroke="#333333" stroke-width="2" d="M85,-33C85,-33 53,-33 53,-33 50,-33 47,-30 47,-27 47,-27 47,-21 47,-21 47,-18 50,-15 53,-15 53,-15 85,-15 85,-15 88,-15 91,-18 91,-21 91,-21 91,-27 91,-27 91,-30 88,-33 85,-33"/>
<text text-anchor="middle" x="69" y="-21.2" font-family="Helvetica,sans-Serif" font-size="11.00" fill="#000000">1.2999</text>
</g>
</g>
</svg>
