<?xml version="1.0" encoding="UTF-8" standalone="no"?>
<!DOCTYPE svg PUBLIC "-//W3C//DTD SVG 1.1//EN"
 "http://www.w3.org/Graphics/SVG/1.1/DTD/svg11.dtd">
<!-- Generated by graphviz version 7.0.0 (0)
 -->
<!-- Pages: 1 -->
<svg width="270pt" height="144pt"
 viewBox="0.00 0.00 270.00 144.00" xmlns="http://www.w3.org/2000/svg" xmlns:xlink="http://www.w3.org/1999/xlink">
<g id="graph0" class="graph" transform="scale(1 1) rotate(0) translate(4 140)">
<g id="clust1" class="cluster">
<title>cluster_tx_1</title>
<path fill="#d0d0d0" stroke="#666666" stroke-width="0.5" d="M20,-8C20,-8 106,-8 106,-8 112,-8 118,-14 118,-20 118,-20 118,-116 118,-116 118,-122 112,-128 106,-128 106,-128 20,-128 20,-128 14,-128 8,-122 8,-116 8,-116 8,-20 8,-20 8,-14 14,-8 20,-8"/>
</g>
<g id="clust2" class="cluster">
<title>cluster_tx_1_inputs</title>
</g>
<g id="clust3" class="cluster">
<title>cluster_tx_1_outputs</title>
</g>
<g id="clust4" class="cluster">
<title>cluster_tx_2</title>
<path fill="#d0d0d0" stroke="#666666" stroke-width="0.5" d="M156,-74C156,-74 242,-74 242,-74 248,-74 254,-80 254,-86 254,-86 254,-116 254,-116 254,-122 248,-128 242,-128 242,-128 156,-128 156,-128 150,-128 144,-122 144,-116 144,-116 144,-86 144,-86 144,-80 150,-74 156,-74"/>
</g>
<g id="clust5" class="cluster">
<title>cluster_tx_2_inputs</title>
</g>
<g id="clust6" class="cluster">
<title>cluster_tx_2_outputs</title>
</g>
<!-- input_1_1 -->
<g id="node1" class="node">
<title>input_1_1</title>
<path fill="#ffffff" stroke="none" stroke-width="2" d="M43,-121C43,-121 31,-121 31,-121 28,-121 25,-118 25,-115 25,-115 25,-109 25,-109 25,-106 28,-103 31,-103 31,-103 43,-103 43,-103 46,-103 49,-106 49,-109 49,-109 49,-115 49,-115 49,-118 46,-121 43,-121"/>
<text text-anchor="middle" x="37" y="-109.2" font-family="Helvetica,sans-Serif" font-size="11.00" fill="#000000">1.0</text>
</g>
<!-- output_1_1 -->
<g id="node6" class="node">
<title>output_1_1</title>
<path fill="#ffffff" stroke="none" stroke-width="2" d="M95,-121C95,-121 83,-121 83,-121 80,-121 77,-118 77,-115 77,-115 77,-109 77,-109 77,-106 80,-103 83,-103 83,-103 95,-103 95,-103 98,-103 101,-106 101,-109 101,-109 101,-115 101,-115 101,-118 98,-121 95,-121"/>
<text text-anchor="middle" x="89" y="-109.2" font-family="Helvetica,sans-Serif" font-size="11.00" fill="#000000">1.1</text>
</g>
<!-- input_1_1&#45;&gt;output_1_1 -->
<!-- input_1_2 -->
<g id="node2" class="node">
<title>input_1_2</title>
<path fill="#ffffff" stroke="none" stroke-width="2" d="M53,-99C53,-99 21,-99 21,-99 18,-99 15,-96 15,-93 15,-93 15,-87 15,-87 15,-84 18,-81 21,-81 21,-81 53,-81 53,-81 56,-81 59,-84 59,-87 59,-87 59,-93 59,-93 59,-96 56,-99 53,-99"/>
<text text-anchor="middle" x="37" y="-87.2" font-family="Helvetica,sans-Serif" font-size="11.00" fill="#000000">0.1001</text>
</g>
<!-- input_1_3 -->
<g id="node3" class="node">
<title>input_1_3</title>
<path fill="#ffffff" stroke="none" stroke-width="2" d="M43,-77C43,-77 31,-77 31,-77 28,-77 25,-74 25,-71 25,-71 25,-65 25,-65 25,-62 28,-59 31,-59 31,-59 43,-59 43,-59 46,-59 49,-62 49,-65 49,-65 49,-71 49,-71 49,-74 46,-77 43,-77"/>
<text text-anchor="middle" x="37" y="-65.2" font-family="Helvetica,sans-Serif" font-size="11.00" fill="#000000">0.4</text>
</g>
<!-- input_1_4 -->
<g id="node4" class="node">
<title>input_1_4</title>
<path fill="#ffffff" stroke="none" stroke-width="2" d="M43,-55C43,-55 31,-55 31,-55 28,-55 25,-52 25,-49 25,-49 25,-43 25,-43 25,-40 28,-37 31,-37 31,-37 43,-37 43,-37 46,-37 49,-40 49,-43 49,-43 49,-49 49,-49 49,-52 46,-55 43,-55"/>
<text text-anchor="middle" x="37" y="-43.2" font-family="Helvetica,sans-Serif" font-size="11.00" fill="#000000">0.3</text>
</g>
<!-- input_1_5 -->
<g id="node5" class="node">
<title>input_1_5</title>
<path fill="#ffffff" stroke="none" stroke-width="2" d="M43,-33C43,-33 31,-33 31,-33 28,-33 25,-30 25,-27 25,-27 25,-21 25,-21 25,-18 28,-15 31,-15 31,-15 43,-15 43,-15 46,-15 49,-18 49,-21 49,-21 49,-27 49,-27 49,-30 46,-33 43,-33"/>
<text text-anchor="middle" x="37" y="-21.2" font-family="Helvetica,sans-Serif" font-size="11.00" fill="#000000">0.2</text>
</g>
<!-- input_2_1 -->
<g id="node9" class="node">
<title>input_2_1</title>
<path fill="#ffffff" stroke="none" stroke-width="2" d="M179,-121C179,-121 167,-121 167,-121 164,-121 161,-118 161,-115 161,-115 161,-109 161,-109 161,-106 164,-103 167,-103 167,-103 179,-103 179,-103 182,-103 185,-106 185,-109 185,-109 185,-115 185,-115 185,-118 182,-121 179,-121"/>
<text text-anchor="middle" x="173" y="-109.2" font-family="Helvetica,sans-Serif" font-size="11.00" fill="#000000">1.1</text>
</g>
<!-- output_1_1&#45;&gt;input_2_1 -->
<g id="edge3" class="edge">
<title>output_1_1&#45;&gt;input_2_1</title>
<path fill="none" stroke="#909090" d="M101.75,-112C115.31,-112 137.78,-112 153.65,-112"/>
<polygon fill="#909090" stroke="#909090" points="153.49,-113.75 158.49,-112 153.49,-110.25 153.49,-113.75"/>
</g>
<!-- output_1_2 -->
<g id="node7" class="node">
<title>output_1_2</title>
<path fill="#ffffff" stroke="none" stroke-width="2" d="M105,-99C105,-99 73,-99 73,-99 70,-99 67,-96 67,-93 67,-93 67,-87 67,-87 67,-84 70,-81 73,-81 73,-81 105,-81 105,-81 108,-81 111,-84 111,-87 111,-87 111,-93 111,-93 111,-96 108,-99 105,-99"/>
<text text-anchor="middle" x="89" y="-87.2" font-family="Helvetica,sans-Serif" font-size="11.00" fill="#000000">0.7999</text>
</g>
<!-- input_2_2 -->
<g id="node10" class="node">
<title>input_2_2</title>
<path fill="#ffffff" stroke="none" stroke-width="2" d="M189,-99C189,-99 157,-99 157,-99 154,-99 151,-96 151,-93 151,-93 151,-87 151,-87 151,-84 154,-81 157,-81 157,-81 189,-81 189,-81 192,-81 195,-84 195,-87 195,-87 195,-93 195,-93 195,-96 192,-99 189,-99"/>
<text text-anchor="middle" x="173" y="-87.2" font-family="Helvetica,sans-Serif" font-size="11.00" fill="#000000">0.7999</text>
</g>
<!-- output_1_2&#45;&gt;input_2_2 -->
<g id="edge4" class="edge">
<title>output_1_2&#45;&gt;input_2_2</title>
<path fill="none" stroke="#909090" d="M111.97,-90C121.8,-90 133.49,-90 143.93,-90"/>
<polygon fill="#909090" stroke="#909090" points="143.74,-91.75 148.74,-90 143.74,-88.25 143.74,-91.75"/>
</g>
<!-- output_1_3 -->
<g id="node8" class="node">
<title>output_1_3</title>
<path fill="#ffffff" stroke="#333333" stroke-width="2" d="M95,-77C95,-77 83,-77 83,-77 80,-77 77,-74 77,-71 77,-71 77,-65 77,-65 77,-62 80,-59 83,-59 83,-59 95,-59 95,-59 98,-59 101,-62 101,-65 101,-65 101,-71 101,-71 101,-74 98,-77 95,-77"/>
<text text-anchor="middle" x="89" y="-65.2" font-family="Helvetica,sans-Serif" font-size="11.00" fill="#000000">0.1</text>
</g>
<!-- output_2_1 -->
<g id="node11" class="node">
<title>output_2_1</title>
<path fill="#ffffff" stroke="#333333" stroke-width="2" d="M231,-121C231,-121 219,-121 219,-121 216,-121 213,-118 213,-115 213,-115 213,-109 213,-109 213,-106 216,-103 219,-103 219,-103 231,-103 231,-103 234,-103 237,-106 237,-109 237,-109 237,-115 237,-115 237,-118 234,-121 231,-121"/>
<text text-anchor="middle" x="225" y="-109.2" font-family="Helvetica,sans-Serif" font-size="11.00" fill="#000000">1.5</text>
</g>
<!-- input_2_1&#45;&gt;output_2_1 -->
<!-- output_2_2 -->
<g id="node12" class="node">
<title>output_2_2</title>
<path fill="#ffffff" stroke="#333333" stroke-width="2" d="M241,-99C241,-99 209,-99 209,-99 206,-99 203,-96 203,-93 203,-93 203,-87 203,-87 203,-84 206,-81 209,-81 209,-81 241,-81 241,-81 244,-81 247,-84 247,-87 247,-87 247,-93 247,-93 247,-96 244,-99 241,-99"/>
<text text-anchor="middle" x="225" y="-87.2" font-family="Helvetica,sans-Serif" font-size="11.00" fill="#000000">0.3998</text>
</g>
</g>
</svg>
