<?xml version="1.0" encoding="UTF-8" standalone="no"?>
<!DOCTYPE svg PUBLIC "-//W3C//DTD SVG 1.1//EN"
 "http://www.w3.org/Graphics/SVG/1.1/DTD/svg11.dtd">
<!-- Generated by graphviz version 7.0.0 (0)
 -->
<!-- Pages: 1 -->
<svg width="223pt" height="162pt"
 viewBox="0.00 0.00 223.00 162.00" xmlns="http://www.w3.org/2000/svg" xmlns:xlink="http://www.w3.org/1999/xlink">
<g id="graph0" class="graph" transform="scale(1 1) rotate(0) translate(4 158)">
<g id="clust1" class="cluster">
<title>cluster_tx_1</title>
<path fill="#d0d0d0" stroke="#666666" stroke-width="0.5" d="M20,-30C20,-30 79,-30 79,-30 85,-30 91,-36 91,-42 91,-42 91,-72 91,-72 91,-78 85,-84 79,-84 79,-84 20,-84 20,-84 14,-84 8,-78 8,-72 8,-72 8,-42 8,-42 8,-36 14,-30 20,-30"/>
</g>
<g id="clust2" class="cluster">
<title>cluster_tx_1_inputs</title>
</g>
<g id="clust3" class="cluster">
<title>cluster_tx_1_outputs</title>
</g>
<g id="clust4" class="cluster">
<title>cluster_tx_2</title>
<path fill="#d0d0d0" stroke="#666666" stroke-width="0.5" d="M20,-92C20,-92 79,-92 79,-92 85,-92 91,-98 91,-104 91,-104 91,-134 91,-134 91,-140 85,-146 79,-146 79,-146 20,-146 20,-146 14,-146 8,-140 8,-134 8,-134 8,-104 8,-104 8,-98 14,-92 20,-92"/>
</g>
<g id="clust5" class="cluster">
<title>cluster_tx_2_inputs</title>
</g>
<g id="clust6" class="cluster">
<title>cluster_tx_2_outputs</title>
</g>
<g id="clust7" class="cluster">
<title>cluster_tx_3</title>
<path fill="#d0d0d0" stroke="#666666" stroke-width="0.5" d="M129,-8C129,-8 195,-8 195,-8 201,-8 207,-14 207,-20 207,-20 207,-50 207,-50 207,-56 201,-62 195,-62 195,-62 129,-62 129,-62 123,-62 117,-56 117,-50 117,-50 117,-20 117,-20 117,-14 123,-8 129,-8"/>
</g>
<g id="clust8" class="cluster">
<title>cluster_tx_3_inputs</title>
</g>
<g id="clust9" class="cluster">
<title>cluster_tx_3_outputs</title>
</g>
<g id="clust10" class="cluster">
<title>cluster_tx_4</title>
<path fill="#d0d0d0" stroke="#666666" stroke-width="0.5" d="M129,-92C129,-92 195,-92 195,-92 201,-92 207,-98 207,-104 207,-104 207,-134 207,-134 207,-140 201,-146 195,-146 195,-146 129,-146 129,-146 123,-146 117,-140 117,-134 117,-134 117,-104 117,-104 117,-98 123,-92 129,-92"/>
</g>
<g id="clust11" class="cluster">
<title>cluster_tx_4_inputs</title>
</g>
<g id="clust12" class="cluster">
<title>cluster_tx_4_outputs</title>
</g>
<!-- input_1_1 -->
<g id="node1" class="node">
<title>input_1_1</title>
<path fill="#ffffff" stroke="none" stroke-width="2" d="M46,-77C46,-77 21,-77 21,-77 18,-77 15,-74 15,-71 15,-71 15,-65 15,-65 15,-62 18,-59 21,-59 21,-59 46,-59 46,-59 49,-59 52,-62 52,-65 52,-65 52,-71 52,-71 52,-74 49,-77 46,-77"/>
<text text-anchor="middle" x="33.5" y="-65.2" font-family="Helvetica,sans-Serif" font-size="11.00" fill="#000000">1.001</text>
</g>
<!-- output_1_1 -->
<g id="node3" class="node">
<title>output_1_1</title>
<path fill="#ffffff" stroke="#333333" stroke-width="2" d="M78,-77C78,-77 66,-77 66,-77 63,-77 60,-74 60,-71 60,-71 60,-65 60,-65 60,-62 63,-59 66,-59 66,-59 78,-59 78,-59 81,-59 84,-62 84,-65 84,-65 84,-71 84,-71 84,-74 81,-77 78,-77"/>
<text text-anchor="middle" x="72" y="-65.2" font-family="Helvetica,sans-Serif" font-size="11.00" fill="#000000">1.0</text>
</g>
<!-- input_1_1&#45;&gt;output_1_1 -->
<!-- input_1_2 -->
<g id="node2" class="node">
<title>input_1_2</title>
<path fill="#ffffff" stroke="none" stroke-width="2" d="M46,-55C46,-55 21,-55 21,-55 18,-55 15,-52 15,-49 15,-49 15,-43 15,-43 15,-40 18,-37 21,-37 21,-37 46,-37 46,-37 49,-37 52,-40 52,-43 52,-43 52,-49 52,-49 52,-52 49,-55 46,-55"/>
<text text-anchor="middle" x="33.5" y="-43.2" font-family="Helvetica,sans-Serif" font-size="11.00" fill="#000000">1.001</text>
</g>
<!-- output_1_2 -->
<g id="node4" class="node">
<title>output_1_2</title>
<path fill="#ffffff" stroke="none" stroke-width="2" d="M78,-55C78,-55 66,-55 66,-55 63,-55 60,-52 60,-49 60,-49 60,-43 60,-43 60,-40 63,-37 66,-37 66,-37 78,-37 78,-37 81,-37 84,-40 84,-43 84,-43 84,-49 84,-49 84,-52 81,-55 78,-55"/>
<text text-anchor="middle" x="72" y="-43.2" font-family="Helvetica,sans-Serif" font-size="11.00" fill="#000000">1.0</text>
</g>
<!-- input_3_1 -->
<g id="node9" class="node">
<title>input_3_1</title>
<path fill="#ffffff" stroke="none" stroke-width="2" d="M142,-55C142,-55 130,-55 130,-55 127,-55 124,-52 124,-49 124,-49 124,-43 124,-43 124,-40 127,-37 130,-37 130,-37 142,-37 142,-37 145,-37 148,-40 148,-43 148,-43 148,-49 148,-49 148,-52 145,-55 142,-55"/>
<text text-anchor="middle" x="136" y="-43.2" font-family="Helvetica,sans-Serif" font-size="11.00" fill="#000000">1.0</text>
</g>
<!-- output_1_2&#45;&gt;input_3_1 -->
<g id="edge5" class="edge">
<title>output_1_2&#45;&gt;input_3_1</title>
<path fill="none" stroke="#909090" d="M84.95,-46C93.96,-46 106.47,-46 116.73,-46"/>
<polygon fill="#909090" stroke="#909090" points="116.57,-47.75 121.57,-46 116.57,-44.25 116.57,-47.75"/>
</g>
<!-- input_2_1 -->
<g id="node5" class="node">
<title>input_2_1</title>
<path fill="#ffffff" stroke="none" stroke-width="2" d="M46,-139C46,-139 21,-139 21,-139 18,-139 15,-136 15,-133 15,-133 15,-127 15,-127 15,-124 18,-121 21,-121 21,-121 46,-121 46,-121 49,-121 52,-124 52,-127 52,-127 52,-133 52,-133 52,-136 49,-139 46,-139"/>
<text text-anchor="middle" x="33.5" y="-127.2" font-family="Helvetica,sans-Serif" font-size="11.00" fill="#000000">1.001</text>
</g>
<!-- output_2_1 -->
<g id="node7" class="node">
<title>output_2_1</title>
<path fill="#ffffff" stroke="none" stroke-width="2" d="M78,-139C78,-139 66,-139 66,-139 63,-139 60,-136 60,-133 60,-133 60,-127 60,-127 60,-124 63,-121 66,-121 66,-121 78,-121 78,-121 81,-121 84,-124 84,-127 84,-127 84,-133 84,-133 84,-136 81,-139 78,-139"/>
<text text-anchor="middle" x="72" y="-127.2" font-family="Helvetica,sans-Serif" font-size="11.00" fill="#000000">1.0</text>
</g>
<!-- input_2_1&#45;&gt;output_2_1 -->
<!-- input_2_2 -->
<g id="node6" class="node">
<title>input_2_2</title>
<path fill="#ffffff" stroke="none" stroke-width="2" d="M46,-117C46,-117 21,-117 21,-117 18,-117 15,-114 15,-111 15,-111 15,-105 15,-105 15,-102 18,-99 21,-99 21,-99 46,-99 46,-99 49,-99 52,-102 52,-105 52,-105 52,-111 52,-111 52,-114 49,-117 46,-117"/>
<text text-anchor="middle" x="33.5" y="-105.2" font-family="Helvetica,sans-Serif" font-size="11.00" fill="#000000">1.001</text>
</g>
<!-- input_4_1 -->
<g id="node12" class="node">
<title>input_4_1</title>
<path fill="#ffffff" stroke="none" stroke-width="2" d="M142,-139C142,-139 130,-139 130,-139 127,-139 124,-136 124,-133 124,-133 124,-127 124,-127 124,-124 127,-121 130,-121 130,-121 142,-121 142,-121 145,-121 148,-124 148,-127 148,-127 148,-133 148,-133 148,-136 145,-139 142,-139"/>
<text text-anchor="middle" x="136" y="-127.2" font-family="Helvetica,sans-Serif" font-size="11.00" fill="#000000">1.0</text>
</g>
<!-- output_2_1&#45;&gt;input_4_1 -->
<g id="edge6" class="edge">
<title>output_2_1&#45;&gt;input_4_1</title>
<path fill="none" stroke="#909090" d="M84.95,-130C93.96,-130 106.47,-130 116.73,-130"/>
<polygon fill="#909090" stroke="#909090" points="116.57,-131.75 121.57,-130 116.57,-128.25 116.57,-131.75"/>
</g>
<!-- output_2_2 -->
<g id="node8" class="node">
<title>output_2_2</title>
<path fill="#ffffff" stroke="#333333" stroke-width="2" d="M78,-117C78,-117 66,-117 66,-117 63,-117 60,-114 60,-111 60,-111 60,-105 60,-105 60,-102 63,-99 66,-99 66,-99 78,-99 78,-99 81,-99 84,-102 84,-105 84,-105 84,-111 84,-111 84,-114 81,-117 78,-117"/>
<text text-anchor="middle" x="72" y="-105.2" font-family="Helvetica,sans-Serif" font-size="11.00" fill="#000000">1.0</text>
</g>
<!-- output_3_1 -->
<g id="node10" class="node">
<title>output_3_1</title>
<path fill="#ffffff" stroke="#333333" stroke-width="2" d="M184,-55C184,-55 172,-55 172,-55 169,-55 166,-52 166,-49 166,-49 166,-43 166,-43 166,-40 169,-37 172,-37 172,-37 184,-37 184,-37 187,-37 190,-40 190,-43 190,-43 190,-49 190,-49 190,-52 187,-55 184,-55"/>
<text text-anchor="middle" x="178" y="-43.2" font-family="Helvetica,sans-Serif" font-size="11.00" fill="#000000">0.7</text>
</g>
<!-- input_3_1&#45;&gt;output_3_1 -->
<!-- output_3_2 -->
<g id="node11" class="node">
<title>output_3_2</title>
<path fill="#ffffff" stroke="#333333" stroke-width="2" d="M194,-33C194,-33 162,-33 162,-33 159,-33 156,-30 156,-27 156,-27 156,-21 156,-21 156,-18 159,-15 162,-15 162,-15 194,-15 194,-15 197,-15 200,-18 200,-21 200,-21 200,-27 200,-27 200,-30 197,-33 194,-33"/>
<text text-anchor="middle" x="178" y="-21.2" font-family="Helvetica,sans-Serif" font-size="11.00" fill="#000000">0.2999</text>
</g>
<!-- output_4_1 -->
<g id="node13" class="node">
<title>output_4_1</title>
<path fill="#ffffff" stroke="#333333" stroke-width="2" d="M187.5,-139C187.5,-139 168.5,-139 168.5,-139 165.5,-139 162.5,-136 162.5,-133 162.5,-133 162.5,-127 162.5,-127 162.5,-124 165.5,-121 168.5,-121 168.5,-121 187.5,-121 187.5,-121 190.5,-121 193.5,-124 193.5,-127 193.5,-127 193.5,-133 193.5,-133 193.5,-136 190.5,-139 187.5,-139"/>
<text text-anchor="middle" x="178" y="-127.2" font-family="Helvetica,sans-Serif" font-size="11.00" fill="#000000">0.25</text>
</g>
<!-- input_4_1&#45;&gt;output_4_1 -->
<!-- output_4_2 -->
<g id="node14" class="node">
<title>output_4_2</title>
<path fill="#ffffff" stroke="#333333" stroke-width="2" d="M194,-117C194,-117 162,-117 162,-117 159,-117 156,-114 156,-111 156,-111 156,-105 156,-105 156,-102 159,-99 162,-99 162,-99 194,-99 194,-99 197,-99 200,-102 200,-105 200,-105 200,-111 200,-111 200,-114 197,-117 194,-117"/>
<text text-anchor="middle" x="178" y="-105.2" font-family="Helvetica,sans-Serif" font-size="11.00" fill="#000000">0.7499</text>
</g>
</g>
</svg>
