<?xml version="1.0" encoding="UTF-8" standalone="no"?>
<!DOCTYPE svg PUBLIC "-//W3C//DTD SVG 1.1//EN"
 "http://www.w3.org/Graphics/SVG/1.1/DTD/svg11.dtd">
<!-- Generated by graphviz version 7.0.0 (0)
 -->
<!-- Pages: 1 -->
<svg width="359pt" height="162pt"
 viewBox="0.00 0.00 359.00 162.00" xmlns="http://www.w3.org/2000/svg" xmlns:xlink="http://www.w3.org/1999/xlink">
<g id="graph0" class="graph" transform="scale(1 1) rotate(0) translate(4 158)">
<g id="clust1" class="cluster">
<title>cluster_tx_1</title>
<path fill="#d0d0d0" stroke="#666666" stroke-width="0.5" d="M20,-92C20,-92 79,-92 79,-92 85,-92 91,-98 91,-104 91,-104 91,-134 91,-134 91,-140 85,-146 79,-146 79,-146 20,-146 20,-146 14,-146 8,-140 8,-134 8,-134 8,-104 8,-104 8,-98 14,-92 20,-92"/>
</g>
<g id="clust2" class="cluster">
<title>cluster_tx_1_inputs</title>
</g>
<g id="clust3" class="cluster">
<title>cluster_tx_1_outputs</title>
</g>
<g id="clust4" class="cluster">
<title>cluster_tx_2</title>
<path fill="#d0d0d0" stroke="#666666" stroke-width="0.5" d="M20,-8C20,-8 79,-8 79,-8 85,-8 91,-14 91,-20 91,-20 91,-50 91,-50 91,-56 85,-62 79,-62 79,-62 20,-62 20,-62 14,-62 8,-56 8,-50 8,-50 8,-20 8,-20 8,-14 14,-8 20,-8"/>
</g>
<g id="clust5" class="cluster">
<title>cluster_tx_2_inputs</title>
</g>
<g id="clust6" class="cluster">
<title>cluster_tx_2_outputs</title>
</g>
<g id="clust7" class="cluster">
<title>cluster_tx_3</title>
<path fill="#ffa0a0" stroke="#666666" stroke-width="0.5" d="M129,-70C129,-70 195,-70 195,-70 201,-70 207,-76 207,-82 207,-82 207,-112 207,-112 207,-118 201,-124 195,-124 195,-124 129,-124 129,-124 123,-124 117,-118 117,-112 117,-112 117,-82 117,-82 117,-76 123,-70 129,-70"/>
</g>
<g id="clust8" class="cluster">
<title>cluster_tx_3_inputs</title>
</g>
<g id="clust9" class="cluster">
<title>cluster_tx_3_outputs</title>
</g>
<g id="clust10" class="cluster">
<title>cluster_tx_4</title>
<path fill="#ffa0a0" stroke="#666666" stroke-width="0.5" d="M129,-8C129,-8 195,-8 195,-8 201,-8 207,-14 207,-20 207,-20 207,-50 207,-50 207,-56 201,-62 195,-62 195,-62 129,-62 129,-62 123,-62 117,-56 117,-50 117,-50 117,-20 117,-20 117,-14 123,-8 129,-8"/>
</g>
<g id="clust11" class="cluster">
<title>cluster_tx_4_inputs</title>
</g>
<g id="clust12" class="cluster">
<title>cluster_tx_4_outputs</title>
</g>
<g id="clust13" class="cluster">
<title>cluster_tx_5</title>
<path fill="#d0d0d0" stroke="#666666" stroke-width="0.5" d="M245,-38C245,-38 331,-38 331,-38 337,-38 343,-44 343,-50 343,-50 343,-102 343,-102 343,-108 337,-114 331,-114 331,-114 245,-114 245,-114 239,-114 233,-108 233,-102 233,-102 233,-50 233,-50 233,-44 239,-38 245,-38"/>
</g>
<g id="clust14" class="cluster">
<title>cluster_tx_5_inputs</title>
</g>
<g id="clust15" class="cluster">
<title>cluster_tx_5_outputs</title>
</g>
<!-- input_1_1 -->
<g id="node1" class="node">
<title>input_1_1</title>
<path fill="#ffffff" stroke="none" stroke-width="2" d="M46,-139C46,-139 21,-139 21,-139 18,-139 15,-136 15,-133 15,-133 15,-127 15,-127 15,-124 18,-121 21,-121 21,-121 46,-121 46,-121 49,-121 52,-124 52,-127 52,-127 52,-133 52,-133 52,-136 49,-139 46,-139"/>
<text text-anchor="middle" x="33.5" y="-127.2" font-family="Helvetica,sans-Serif" font-size="11.00" fill="#000000">1.001</text>
</g>
<!-- output_1_1 -->
<g id="node3" class="node">
<title>output_1_1</title>
<path fill="#ffffff" stroke="#333333" stroke-width="2" d="M78,-139C78,-139 66,-139 66,-139 63,-139 60,-136 60,-133 60,-133 60,-127 60,-127 60,-124 63,-121 66,-121 66,-121 78,-121 78,-121 81,-121 84,-124 84,-127 84,-127 84,-133 84,-133 84,-136 81,-139 78,-139"/>
<text text-anchor="middle" x="72" y="-127.2" font-family="Helvetica,sans-Serif" font-size="11.00" fill="#000000">1.0</text>
</g>
<!-- input_1_1&#45;&gt;output_1_1 -->
<!-- input_1_2 -->
<g id="node2" class="node">
<title>input_1_2</title>
<path fill="#ffffff" stroke="none" stroke-width="2" d="M46,-117C46,-117 21,-117 21,-117 18,-117 15,-114 15,-111 15,-111 15,-105 15,-105 15,-102 18,-99 21,-99 21,-99 46,-99 46,-99 49,-99 52,-102 52,-105 52,-105 52,-111 52,-111 52,-114 49,-117 46,-117"/>
<text text-anchor="middle" x="33.5" y="-105.2" font-family="Helvetica,sans-Serif" font-size="11.00" fill="#000000">1.001</text>
</g>
<!-- output_1_2 -->
<g id="node4" class="node">
<title>output_1_2</title>
<path fill="#ffffff" stroke="none" stroke-width="2" d="M78,-117C78,-117 66,-117 66,-117 63,-117 60,-114 60,-111 60,-111 60,-105 60,-105 60,-102 63,-99 66,-99 66,-99 78,-99 78,-99 81,-99 84,-102 84,-105 84,-105 84,-111 84,-111 84,-114 81,-117 78,-117"/>
<text text-anchor="middle" x="72" y="-105.2" font-family="Helvetica,sans-Serif" font-size="11.00" fill="#000000">1.0</text>
</g>
<!-- input_3_1 -->
<g id="node9" class="node">
<title>input_3_1</title>
<path fill="#ffffff" stroke="none" stroke-width="2" d="M142,-117C142,-117 130,-117 130,-117 127,-117 124,-114 124,-111 124,-111 124,-105 124,-105 124,-102 127,-99 130,-99 130,-99 142,-99 142,-99 145,-99 148,-102 148,-105 148,-105 148,-111 148,-111 148,-114 145,-117 142,-117"/>
<text text-anchor="middle" x="136" y="-105.2" font-family="Helvetica,sans-Serif" font-size="11.00" fill="#000000">1.0</text>
</g>
<!-- output_1_2&#45;&gt;input_3_1 -->
<g id="edge6" class="edge">
<title>output_1_2&#45;&gt;input_3_1</title>
<path fill="none" stroke="#909090" d="M84.95,-108C93.96,-108 106.47,-108 116.73,-108"/>
<polygon fill="#909090" stroke="#909090" points="116.57,-109.75 121.57,-108 116.57,-106.25 116.57,-109.75"/>
</g>
<!-- input_2_1 -->
<g id="node5" class="node">
<title>input_2_1</title>
<path fill="#ffffff" stroke="none" stroke-width="2" d="M46,-55C46,-55 21,-55 21,-55 18,-55 15,-52 15,-49 15,-49 15,-43 15,-43 15,-40 18,-37 21,-37 21,-37 46,-37 46,-37 49,-37 52,-40 52,-43 52,-43 52,-49 52,-49 52,-52 49,-55 46,-55"/>
<text text-anchor="middle" x="33.5" y="-43.2" font-family="Helvetica,sans-Serif" font-size="11.00" fill="#000000">1.001</text>
</g>
<!-- output_2_1 -->
<g id="node7" class="node">
<title>output_2_1</title>
<path fill="#ffffff" stroke="none" stroke-width="2" d="M78,-55C78,-55 66,-55 66,-55 63,-55 60,-52 60,-49 60,-49 60,-43 60,-43 60,-40 63,-37 66,-37 66,-37 78,-37 78,-37 81,-37 84,-40 84,-43 84,-43 84,-49 84,-49 84,-52 81,-55 78,-55"/>
<text text-anchor="middle" x="72" y="-43.2" font-family="Helvetica,sans-Serif" font-size="11.00" fill="#000000">1.0</text>
</g>
<!-- input_2_1&#45;&gt;output_2_1 -->
<!-- input_2_2 -->
<g id="node6" class="node">
<title>input_2_2</title>
<path fill="#ffffff" stroke="none" stroke-width="2" d="M46,-33C46,-33 21,-33 21,-33 18,-33 15,-30 15,-27 15,-27 15,-21 15,-21 15,-18 18,-15 21,-15 21,-15 46,-15 46,-15 49,-15 52,-18 52,-21 52,-21 52,-27 52,-27 52,-30 49,-33 46,-33"/>
<text text-anchor="middle" x="33.5" y="-21.2" font-family="Helvetica,sans-Serif" font-size="11.00" fill="#000000">1.001</text>
</g>
<!-- input_4_1 -->
<g id="node12" class="node">
<title>input_4_1</title>
<path fill="#ffffff" stroke="none" stroke-width="2" d="M142,-55C142,-55 130,-55 130,-55 127,-55 124,-52 124,-49 124,-49 124,-43 124,-43 124,-40 127,-37 130,-37 130,-37 142,-37 142,-37 145,-37 148,-40 148,-43 148,-43 148,-49 148,-49 148,-52 145,-55 142,-55"/>
<text text-anchor="middle" x="136" y="-43.2" font-family="Helvetica,sans-Serif" font-size="11.00" fill="#000000">1.0</text>
</g>
<!-- output_2_1&#45;&gt;input_4_1 -->
<g id="edge7" class="edge">
<title>output_2_1&#45;&gt;input_4_1</title>
<path fill="none" stroke="#909090" d="M84.95,-46C93.96,-46 106.47,-46 116.73,-46"/>
<polygon fill="#909090" stroke="#909090" points="116.57,-47.75 121.57,-46 116.57,-44.25 116.57,-47.75"/>
</g>
<!-- output_2_2 -->
<g id="node8" class="node">
<title>output_2_2</title>
<path fill="#ffffff" stroke="#333333" stroke-width="2" d="M78,-33C78,-33 66,-33 66,-33 63,-33 60,-30 60,-27 60,-27 60,-21 60,-21 60,-18 63,-15 66,-15 66,-15 78,-15 78,-15 81,-15 84,-18 84,-21 84,-21 84,-27 84,-27 84,-30 81,-33 78,-33"/>
<text text-anchor="middle" x="72" y="-21.2" font-family="Helvetica,sans-Serif" font-size="11.00" fill="#000000">1.0</text>
</g>
<!-- output_3_1 -->
<g id="node10" class="node">
<title>output_3_1</title>
<path fill="#ffffff" stroke="#333333" stroke-width="2" d="M184,-117C184,-117 172,-117 172,-117 169,-117 166,-114 166,-111 166,-111 166,-105 166,-105 166,-102 169,-99 172,-99 172,-99 184,-99 184,-99 187,-99 190,-102 190,-105 190,-105 190,-111 190,-111 190,-114 187,-117 184,-117"/>
<text text-anchor="middle" x="178" y="-105.2" font-family="Helvetica,sans-Serif" font-size="11.00" fill="#000000">0.7</text>
</g>
<!-- input_3_1&#45;&gt;output_3_1 -->
<!-- output_3_2 -->
<g id="node11" class="node">
<title>output_3_2</title>
<path fill="#ffffff" stroke="none" stroke-width="2" d="M194,-95C194,-95 162,-95 162,-95 159,-95 156,-92 156,-89 156,-89 156,-83 156,-83 156,-80 159,-77 162,-77 162,-77 194,-77 194,-77 197,-77 200,-80 200,-83 200,-83 200,-89 200,-89 200,-92 197,-95 194,-95"/>
<text text-anchor="middle" x="178" y="-83.2" font-family="Helvetica,sans-Serif" font-size="11.00" fill="#000000">0.2999</text>
</g>
<!-- input_5_2 -->
<g id="node16" class="node">
<title>input_5_2</title>
<path fill="#ffffff" stroke="none" stroke-width="2" d="M278,-85C278,-85 246,-85 246,-85 243,-85 240,-82 240,-79 240,-79 240,-73 240,-73 240,-70 243,-67 246,-67 246,-67 278,-67 278,-67 281,-67 284,-70 284,-73 284,-73 284,-79 284,-79 284,-82 281,-85 278,-85"/>
<text text-anchor="middle" x="262" y="-73.2" font-family="Helvetica,sans-Serif" font-size="11.00" fill="#000000">0.2999</text>
</g>
<!-- output_3_2&#45;&gt;input_5_2 -->
<g id="edge8" class="edge">
<title>output_3_2&#45;&gt;input_5_2</title>
<path fill="none" stroke="#909090" d="M200.97,-83.32C210.8,-82.12 222.49,-80.7 232.93,-79.42"/>
<polygon fill="#909090" stroke="#909090" points="233,-81.18 237.75,-78.84 232.57,-77.7 233,-81.18"/>
</g>
<!-- output_4_1 -->
<g id="node13" class="node">
<title>output_4_1</title>
<path fill="#ffffff" stroke="#333333" stroke-width="2" d="M187.5,-55C187.5,-55 168.5,-55 168.5,-55 165.5,-55 162.5,-52 162.5,-49 162.5,-49 162.5,-43 162.5,-43 162.5,-40 165.5,-37 168.5,-37 168.5,-37 187.5,-37 187.5,-37 190.5,-37 193.5,-40 193.5,-43 193.5,-43 193.5,-49 193.5,-49 193.5,-52 190.5,-55 187.5,-55"/>
<text text-anchor="middle" x="178" y="-43.2" font-family="Helvetica,sans-Serif" font-size="11.00" fill="#000000">0.25</text>
</g>
<!-- input_4_1&#45;&gt;output_4_1 -->
<!-- output_4_2 -->
<g id="node14" class="node">
<title>output_4_2</title>
<path fill="#ffffff" stroke="none" stroke-width="2" d="M194,-33C194,-33 162,-33 162,-33 159,-33 156,-30 156,-27 156,-27 156,-21 156,-21 156,-18 159,-15 162,-15 162,-15 194,-15 194,-15 197,-15 200,-18 200,-21 200,-21 200,-27 200,-27 200,-30 197,-33 194,-33"/>
<text text-anchor="middle" x="178" y="-21.2" font-family="Helvetica,sans-Serif" font-size="11.00" fill="#000000">0.7499</text>
</g>
<!-- input_5_3 -->
<g id="node17" class="node">
<title>input_5_3</title>
<path fill="#ffffff" stroke="none" stroke-width="2" d="M278,-63C278,-63 246,-63 246,-63 243,-63 240,-60 240,-57 240,-57 240,-51 240,-51 240,-48 243,-45 246,-45 246,-45 278,-45 278,-45 281,-45 284,-48 284,-51 284,-51 284,-57 284,-57 284,-60 281,-63 278,-63"/>
<text text-anchor="middle" x="262" y="-51.2" font-family="Helvetica,sans-Serif" font-size="11.00" fill="#000000">0.7499</text>
</g>
<!-- output_4_2&#45;&gt;input_5_3 -->
<g id="edge9" class="edge">
<title>output_4_2&#45;&gt;input_5_3</title>
<path fill="none" stroke="#909090" d="M200.97,-32.04C210.89,-35.67 222.71,-39.99 233.23,-43.84"/>
<polygon fill="#909090" stroke="#909090" points="232.53,-45.45 237.83,-45.52 233.73,-42.16 232.53,-45.45"/>
</g>
<!-- input_5_1 -->
<g id="node15" class="node">
<title>input_5_1</title>
<path fill="#ffffff" stroke="none" stroke-width="2" d="M274.5,-107C274.5,-107 249.5,-107 249.5,-107 246.5,-107 243.5,-104 243.5,-101 243.5,-101 243.5,-95 243.5,-95 243.5,-92 246.5,-89 249.5,-89 249.5,-89 274.5,-89 274.5,-89 277.5,-89 280.5,-92 280.5,-95 280.5,-95 280.5,-101 280.5,-101 280.5,-104 277.5,-107 274.5,-107"/>
<text text-anchor="middle" x="262" y="-95.2" font-family="Helvetica,sans-Serif" font-size="11.00" fill="#000000">1.001</text>
</g>
<!-- output_5_1 -->
<g id="node18" class="node">
<title>output_5_1</title>
<path fill="#ffffff" stroke="#333333" stroke-width="2" d="M320,-107C320,-107 308,-107 308,-107 305,-107 302,-104 302,-101 302,-101 302,-95 302,-95 302,-92 305,-89 308,-89 308,-89 320,-89 320,-89 323,-89 326,-92 326,-95 326,-95 326,-101 326,-101 326,-104 323,-107 320,-107"/>
<text text-anchor="middle" x="314" y="-95.2" font-family="Helvetica,sans-Serif" font-size="11.00" fill="#000000">1.0</text>
</g>
<!-- input_5_1&#45;&gt;output_5_1 -->
<!-- output_5_2 -->
<g id="node19" class="node">
<title>output_5_2</title>
<path fill="#ffffff" stroke="#333333" stroke-width="2" d="M320,-85C320,-85 308,-85 308,-85 305,-85 302,-82 302,-79 302,-79 302,-73 302,-73 302,-70 305,-67 308,-67 308,-67 320,-67 320,-67 323,-67 326,-70 326,-73 326,-73 326,-79 326,-79 326,-82 323,-85 320,-85"/>
<text text-anchor="middle" x="314" y="-73.2" font-family="Helvetica,sans-Serif" font-size="11.00" fill="#000000">1.0</text>
</g>
<!-- output_5_3 -->
<g id="node20" class="node">
<title>output_5_3</title>
<path fill="#ffffff" stroke="#333333" stroke-width="2" d="M330,-63C330,-63 298,-63 298,-63 295,-63 292,-60 292,-57 292,-57 292,-51 292,-51 292,-48 295,-45 298,-45 298,-45 330,-45 330,-45 333,-45 336,-48 336,-51 336,-51 336,-57 336,-57 336,-60 333,-63 330,-63"/>
<text text-anchor="middle" x="314" y="-51.2" font-family="Helvetica,sans-Serif" font-size="11.00" fill="#000000">1.0497</text>
</g>
</g>
</svg>
